0
SECTION
2
HEADER
0
ENDSEC
0
SECTION
2
TABLES
0
TABLE
2
LTYPE
0
LTYPE
72
65
70
64
2
CONTINUOUS
3
______
73
0
40
0
0
ENDTAB
0
TABLE
2
LAYER
0
ENDTAB
0
ENDSEC
0
SECTION
2
ENTITIES
0
CIRCLE
8
0
10
0
20
0
40
3
0
CIRCLE
8
0
10
0
20
0
40
3
0
LINE
8
layer0
10
7.7980826
20
3.0207737
11
7.6870654
21
2.8758142
0
LINE
8
layer0
10
7.6870654
20
2.8758142
11
7.5783312
21
2.7455096
0
LINE
8
layer0
10
7.5783312
20
2.7455096
11
7.4723517
21
2.6287947
0
LINE
8
layer0
10
7.4723517
20
2.6287947
11
7.3712135
21
2.526338
0
LINE
8
layer0
10
7.3712135
20
2.526338
11
7.2721512
21
2.4340756
0
LINE
8
layer0
10
7.2721512
20
2.4340756
11
7.1808809
21
2.3559932
0
LINE
8
layer0
10
7.1808809
20
2.3559932
11
7.0959364
21
2.2892743
0
LINE
8
layer0
10
7.0959364
20
2.2892743
11
7.0181355
21
2.2332442
0
LINE
8
layer0
10
7.0181355
20
2.2332442
11
6.9489735
21
2.1876993
0
LINE
8
layer0
10
6.9489735
20
2.1876993
11
6.8364365
21
2.1229977
0
LINE
8
layer0
10
6.8364365
20
2.1229977
11
6.7436306
21
2.0809023
0
LINE
8
layer0
10
6.7436306
20
2.0809023
11
6.6882708
21
2.0660887
0
LINE
8
layer0
10
6.6882708
20
2.0660887
11
6.5778008
21
2.0307177
0
LINE
8
layer0
10
6.5778008
20
2.0307177
11
6.4820586
21
1.9902679
0
LINE
8
layer0
10
6.4820586
20
1.9902679
11
6.4012556
21
1.9459087
0
LINE
8
layer0
10
6.4012556
20
1.9459087
11
6.3355189
21
1.8988223
0
LINE
8
layer0
10
6.3355189
20
1.8988223
11
6.2849224
21
1.8502002
0
LINE
8
layer0
10
6.2849224
20
1.8502002
11
6.2494498
21
1.8012248
0
LINE
8
layer0
10
6.2494498
20
1.8012248
11
6.2373701
21
1.7769631
0
LINE
8
layer0
10
6.2373701
20
1.7769631
11
6.2290283
21
1.7530563
0
LINE
8
layer0
10
6.2290283
20
1.7530563
11
6.2244128
21
1.7296553
0
LINE
8
layer0
10
6.2244128
20
1.7296553
11
6.2234867
21
1.7068852
0
LINE
8
layer0
10
6.2234867
20
1.7068852
11
6.2274973
21
1.6795517
0
LINE
8
layer0
10
6.2274973
20
1.6795517
11
6.2910524
21
1.4231629
0
LINE
8
layer0
10
6.2910524
20
1.4231629
11
6.309052
21
1.3410304
0
LINE
8
layer0
10
6.309052
20
1.3410304
11
6.3260148
21
1.2586776
0
LINE
8
layer0
10
6.3260148
20
1.2586776
11
6.3722371
21
0.9986045
0
LINE
8
layer0
10
6.3722371
20
0.9986045
11
6.3796908
21
0.9720029
0
LINE
8
layer0
10
6.3796908
20
0.9720029
11
6.3897982
21
0.951578
0
LINE
8
layer0
10
6.3897982
20
0.951578
11
6.4035328
21
0.9320775
0
LINE
8
layer0
10
6.4035328
20
0.9320775
11
6.4208771
21
0.9136304
0
LINE
8
layer0
10
6.4208771
20
0.9136304
11
6.4417806
21
0.8963795
0
LINE
8
layer0
10
6.4417806
20
0.8963795
11
6.4941065
21
0.8660663
0
LINE
8
layer0
10
6.4941065
20
0.8660663
11
6.5601051
21
0.8422272
0
LINE
8
layer0
10
6.5601051
20
0.8422272
11
6.6393104
21
0.8259492
0
LINE
8
layer0
10
6.6393104
20
0.8259492
11
6.73117
21
0.8182906
0
LINE
8
layer0
10
6.73117
20
0.8182906
11
6.8350873
21
0.8202796
0
LINE
8
layer0
10
6.8350873
20
0.8202796
11
6.9503934
21
0.8328989
0
LINE
8
layer0
10
6.9503934
20
0.8328989
11
7.0069923
21
0.8418828
0
LINE
8
layer0
10
7.0069923
20
0.8418828
11
7.1088965
21
0.8411744
0
LINE
8
layer0
10
7.1088965
20
0.8411744
11
7.2380206
21
0.8278394
0
LINE
8
layer0
10
7.2380206
20
0.8278394
11
7.3197281
21
0.8143628
0
LINE
8
layer0
10
7.3197281
20
0.8143628
11
7.4135921
21
0.7948212
0
LINE
8
layer0
10
7.4135921
20
0.7948212
11
7.5183299
21
0.7684205
0
LINE
8
layer0
10
7.5183299
20
0.7684205
11
7.6334684
21
0.7342116
0
LINE
8
layer0
10
7.6334684
20
0.7342116
11
7.7614928
21
0.690218
0
LINE
8
layer0
10
7.7614928
20
0.690218
11
7.8955601
21
0.6377557
0
LINE
8
layer0
10
7.8955601
20
0.6377557
11
8.0398494
21
0.5742371
0
LINE
8
layer0
10
8.0398494
20
0.5742371
11
8.1921827
21
0.4994242
0
LINE
8
layer0
10
8.1921827
20
0.4994242
11
8.3525623
21
0.4121519
0
LINE
8
layer0
10
8.3525623
20
0.4121519
11
8.4936479
21
0.3279928
0
ARC
8
layer0
10
-0.0000215
20
0
40
8.5
50
357.7885565
51
362.2114435
0
LINE
8
layer0
10
8.4936479
20
-0.3279928
11
8.3525623
21
-0.4121519
0
LINE
8
layer0
10
8.3525623
20
-0.4121519
11
8.1921827
21
-0.4994242
0
LINE
8
layer0
10
8.1921827
20
-0.4994242
11
8.0398494
21
-0.5742371
0
LINE
8
layer0
10
8.0398494
20
-0.5742371
11
7.8955601
21
-0.6377557
0
LINE
8
layer0
10
7.8955601
20
-0.6377557
11
7.7614928
21
-0.690218
0
LINE
8
layer0
10
7.7614928
20
-0.690218
11
7.6334684
21
-0.7342116
0
LINE
8
layer0
10
7.6334684
20
-0.7342116
11
7.5183299
21
-0.7684205
0
LINE
8
layer0
10
7.5183299
20
-0.7684205
11
7.4135921
21
-0.7948212
0
LINE
8
layer0
10
7.4135921
20
-0.7948212
11
7.3197281
21
-0.8143628
0
LINE
8
layer0
10
7.3197281
20
-0.8143628
11
7.2380206
21
-0.8278394
0
LINE
8
layer0
10
7.2380206
20
-0.8278394
11
7.1088965
21
-0.8411744
0
LINE
8
layer0
10
7.1088965
20
-0.8411744
11
7.0069923
21
-0.8418828
0
LINE
8
layer0
10
7.0069923
20
-0.8418828
11
6.9503934
21
-0.8328989
0
LINE
8
layer0
10
6.9503934
20
-0.8328989
11
6.8350873
21
-0.8202796
0
LINE
8
layer0
10
6.8350873
20
-0.8202796
11
6.73117
21
-0.8182906
0
LINE
8
layer0
10
6.73117
20
-0.8182906
11
6.6393104
21
-0.8259492
0
LINE
8
layer0
10
6.6393104
20
-0.8259492
11
6.5601051
21
-0.8422272
0
LINE
8
layer0
10
6.5601051
20
-0.8422272
11
6.4941065
21
-0.8660663
0
LINE
8
layer0
10
6.4941065
20
-0.8660663
11
6.4417806
21
-0.8963795
0
LINE
8
layer0
10
6.4417806
20
-0.8963795
11
6.4208771
21
-0.9136304
0
LINE
8
layer0
10
6.4208771
20
-0.9136304
11
6.4035328
21
-0.9320775
0
LINE
8
layer0
10
6.4035328
20
-0.9320775
11
6.3897982
21
-0.951578
0
LINE
8
layer0
10
6.3897982
20
-0.951578
11
6.3796908
21
-0.9720029
0
LINE
8
layer0
10
6.3796908
20
-0.9720029
11
6.3722371
21
-0.9986045
0
LINE
8
layer0
10
6.3722371
20
-0.9986045
11
6.3260148
21
-1.2586776
0
LINE
8
layer0
10
6.3260148
20
-1.2586776
11
6.309052
21
-1.3410304
0
LINE
8
layer0
10
6.309052
20
-1.3410304
11
6.2910524
21
-1.4231629
0
LINE
8
layer0
10
6.2910524
20
-1.4231629
11
6.2274973
21
-1.6795517
0
LINE
8
layer0
10
6.2274973
20
-1.6795517
11
6.2234867
21
-1.7068852
0
LINE
8
layer0
10
6.2234867
20
-1.7068852
11
6.2244128
21
-1.7296553
0
LINE
8
layer0
10
6.2244128
20
-1.7296553
11
6.2290283
21
-1.7530563
0
LINE
8
layer0
10
6.2290283
20
-1.7530563
11
6.2373701
21
-1.7769631
0
LINE
8
layer0
10
6.2373701
20
-1.7769631
11
6.2494498
21
-1.8012248
0
LINE
8
layer0
10
6.2494498
20
-1.8012248
11
6.2849224
21
-1.8502002
0
LINE
8
layer0
10
6.2849224
20
-1.8502002
11
6.3355189
21
-1.8988223
0
LINE
8
layer0
10
6.3355189
20
-1.8988223
11
6.4012556
21
-1.9459087
0
LINE
8
layer0
10
6.4012556
20
-1.9459087
11
6.4820586
21
-1.9902679
0
LINE
8
layer0
10
6.4820586
20
-1.9902679
11
6.5778008
21
-2.0307177
0
LINE
8
layer0
10
6.5778008
20
-2.0307177
11
6.6882708
21
-2.0660887
0
LINE
8
layer0
10
6.6882708
20
-2.0660887
11
6.7436306
21
-2.0809023
0
LINE
8
layer0
10
6.7436306
20
-2.0809023
11
6.8364365
21
-2.1229977
0
LINE
8
layer0
10
6.8364365
20
-2.1229977
11
6.9489735
21
-2.1876993
0
LINE
8
layer0
10
6.9489735
20
-2.1876993
11
7.0181355
21
-2.2332442
0
LINE
8
layer0
10
7.0181355
20
-2.2332442
11
7.0959364
21
-2.2892743
0
LINE
8
layer0
10
7.0959364
20
-2.2892743
11
7.1808809
21
-2.3559932
0
LINE
8
layer0
10
7.1808809
20
-2.3559932
11
7.2721512
21
-2.4340756
0
LINE
8
layer0
10
7.2721512
20
-2.4340756
11
7.3712135
21
-2.526338
0
LINE
8
layer0
10
7.3712135
20
-2.526338
11
7.4723517
21
-2.6287947
0
LINE
8
layer0
10
7.4723517
20
-2.6287947
11
7.5783312
21
-2.7455096
0
LINE
8
layer0
10
7.5783312
20
-2.7455096
11
7.6870654
21
-2.8758142
0
LINE
8
layer0
10
7.6870654
20
-2.8758142
11
7.7980826
21
-3.0207737
0
LINE
8
layer0
10
7.7980826
20
-3.0207737
11
7.8927401
21
-3.1550415
0
ARC
8
layer0
10
-0.0000197
20
0.0000088
40
8.5
50
333.7885559
51
338.2114432
0
LINE
8
layer0
10
7.6259267
20
-3.7543142
11
7.4628081
21
-3.7738126
0
LINE
8
layer0
10
7.4628081
20
-3.7738126
11
7.2807972
21
-3.7883076
0
LINE
8
layer0
10
7.2807972
20
-3.7883076
11
7.1112046
21
-3.7946931
0
LINE
8
layer0
10
7.1112046
20
-3.7946931
11
6.9535544
21
-3.7940324
0
LINE
8
layer0
10
6.9535544
20
-3.7940324
11
6.8097396
21
-3.7874291
0
LINE
8
layer0
10
6.8097396
20
-3.7874291
11
6.6748896
21
-3.775547
0
LINE
8
layer0
10
6.6748896
20
-3.775547
11
6.5557914
21
-3.7599674
0
LINE
8
layer0
10
6.5557914
20
-3.7599674
11
6.4493705
21
-3.7414849
0
LINE
8
layer0
10
6.4493705
20
-3.7414849
11
6.3556731
21
-3.7211591
0
LINE
8
layer0
10
6.3556731
20
-3.7211591
11
6.2755483
21
-3.7002371
0
LINE
8
layer0
10
6.2755483
20
-3.7002371
11
6.1521636
21
-3.6598997
0
LINE
8
layer0
10
6.1521636
20
-3.6598997
11
6.0587814
21
-3.6190987
0
LINE
8
layer0
10
6.0587814
20
-3.6190987
11
6.0107298
21
-3.5878706
0
LINE
8
layer0
10
6.0107298
20
-3.5878706
11
5.9105252
21
-3.5294432
0
LINE
8
layer0
10
5.9105252
20
-3.5294432
11
5.8164011
21
-3.4853591
0
LINE
8
layer0
10
5.8164011
20
-3.4853591
11
5.729368
21
-3.454993
0
LINE
8
layer0
10
5.729368
20
-3.454993
11
5.6503896
21
-3.437648
0
LINE
8
layer0
10
5.6503896
20
-3.437648
11
5.5804006
21
-3.432582
0
LINE
8
layer0
10
5.5804006
20
-3.432582
11
5.520269
21
-3.4389917
0
LINE
8
layer0
10
5.520269
20
-3.4389917
11
5.4941562
21
-3.4462489
0
LINE
8
layer0
10
5.4941562
20
-3.4462489
11
5.4708082
21
-3.4560465
0
LINE
8
layer0
10
5.4708082
20
-3.4560465
11
5.4503295
21
-3.4682749
0
LINE
8
layer0
10
5.4503295
20
-3.4682749
11
5.4327883
21
-3.4828228
0
LINE
8
layer0
10
5.4327883
20
-3.4828228
11
5.4151592
21
-3.5040929
0
LINE
8
layer0
10
5.4151592
20
-3.5040929
11
5.2671518
21
-3.7228812
0
LINE
8
layer0
10
5.2671518
20
-3.7228812
11
5.2181596
21
-3.7912149
0
LINE
8
layer0
10
5.2181596
20
-3.7912149
11
5.1683099
21
-3.8589255
0
LINE
8
layer0
10
5.1683099
20
-3.8589255
11
5.0059667
21
-4.0672982
0
LINE
8
layer0
10
5.0059667
20
-4.0672982
11
4.9911853
21
-4.0906373
0
LINE
8
layer0
10
4.9911853
20
-4.0906373
11
4.9827698
21
-4.1118155
0
LINE
8
layer0
10
4.9827698
20
-4.1118155
11
4.9774683
21
-4.1350707
0
LINE
8
layer0
10
4.9774683
20
-4.1350707
11
4.9753651
21
-4.1603035
0
LINE
8
layer0
10
4.9753651
20
-4.1603035
11
4.9765324
21
-4.1873809
0
LINE
8
layer0
10
4.9765324
20
-4.1873809
11
4.9890181
21
-4.2465502
0
LINE
8
layer0
10
4.9890181
20
-4.2465502
11
5.0154639
21
-4.3115482
0
LINE
8
layer0
10
5.0154639
20
-4.3115482
11
5.0563657
21
-4.3813012
0
LINE
8
layer0
10
5.0563657
20
-4.3813012
11
5.1121403
21
-4.4546909
0
LINE
8
layer0
10
5.1121403
20
-4.4546909
11
5.1831527
21
-4.5305856
0
LINE
8
layer0
10
5.1831527
20
-4.5305856
11
5.2696854
21
-4.6078307
0
LINE
8
layer0
10
5.2696854
20
-4.6078307
11
5.3142339
21
-4.6438806
0
LINE
8
layer0
10
5.3142339
20
-4.6438806
11
5.3818946
21
-4.7200841
0
LINE
8
layer0
10
5.3818946
20
-4.7200841
11
5.4583857
21
-4.8249649
0
LINE
8
layer0
10
5.4583857
20
-4.8249649
11
5.5030436
21
-4.894703
0
LINE
8
layer0
10
5.5030436
20
-4.894703
11
5.5513287
21
-4.9775334
0
LINE
8
layer0
10
5.5513287
20
-4.9775334
11
5.6017924
21
-5.0730343
0
LINE
8
layer0
10
5.6017924
20
-5.0730343
11
5.6534129
21
-5.1814891
0
LINE
8
layer0
10
5.6534129
20
-5.1814891
11
5.7063844
21
-5.3060672
0
LINE
8
layer0
10
5.7063844
20
-5.3060672
11
5.7571058
21
-5.4408027
0
LINE
8
layer0
10
5.7571058
20
-5.4408027
11
5.8064507
21
-5.5905328
0
LINE
8
layer0
10
5.8064507
20
-5.5905328
11
5.8527847
21
-5.7537982
0
LINE
8
layer0
10
5.8527847
20
-5.7537982
11
5.8952436
21
-5.9313801
0
LINE
8
layer0
10
5.8952436
20
-5.9313801
11
5.9271059
21
-6.0925404
0
ARC
8
layer0
10
-0.0000142
20
0.0000163
40
8.5
50
309.7885545
51
314.2114413
0
LINE
8
layer0
10
5.4396136
20
-6.5314805
11
5.2826666
21
-6.4829469
0
LINE
8
layer0
10
5.2826666
20
-6.4829469
11
5.1104957
21
-6.4221582
0
LINE
8
layer0
10
5.1104957
20
-6.4221582
11
4.9529679
21
-6.3590121
0
LINE
8
layer0
10
4.9529679
20
-6.3590121
11
4.809216
21
-6.2942865
0
LINE
8
layer0
10
4.809216
20
-6.2942865
11
4.6805205
21
-6.2297592
0
LINE
8
layer0
10
4.6805205
20
-6.2297592
11
4.5621618
21
-6.164056
0
LINE
8
layer0
10
4.5621618
20
-6.164056
11
4.4596969
21
-6.1013817
0
LINE
8
layer0
10
4.4596969
20
-6.1013817
11
4.3699941
21
-6.0412119
0
LINE
8
layer0
10
4.3699941
20
-6.0412119
11
4.2926646
21
-5.9845331
0
LINE
8
layer0
10
4.2926646
20
-5.9845331
11
4.2279766
21
-5.9328302
0
LINE
8
layer0
10
4.2279766
20
-5.9328302
11
4.1316658
21
-5.8457951
0
LINE
8
layer0
10
4.1316658
20
-5.8457951
11
4.0629522
21
-5.7705396
0
LINE
8
layer0
10
4.0629522
20
-5.7705396
11
4.0317564
21
-5.722467
0
LINE
8
layer0
10
4.0317564
20
-5.722467
11
3.9639796
21
-5.628334
0
LINE
8
layer0
10
3.9639796
20
-5.628334
11
3.8959235
21
-5.5497774
0
LINE
8
layer0
10
3.8959235
20
-5.5497774
11
3.8287659
21
-5.486637
0
LINE
8
layer0
10
3.8287659
20
-5.486637
11
3.7636703
21
-5.4386682
0
LINE
8
layer0
10
3.7636703
20
-5.4386682
11
3.7017927
21
-5.4055731
0
LINE
8
layer0
10
3.7017927
20
-5.4055731
11
3.6442527
21
-5.3869709
0
LINE
8
layer0
10
3.6442527
20
-5.3869709
11
3.6174457
21
-5.3829797
0
LINE
8
layer0
10
3.6174457
20
-5.3829797
11
3.5921312
21
-5.3824338
0
LINE
8
layer0
10
3.5921312
20
-5.3824338
11
3.5684493
21
-5.3852755
0
LINE
8
layer0
10
3.5684493
20
-5.3852755
11
3.5465074
21
-5.3914311
0
LINE
8
layer0
10
3.5465074
20
-5.3914311
11
3.5217511
21
-5.4036919
0
LINE
8
layer0
10
3.5217511
20
-5.4036919
11
3.2975504
21
-5.5433649
0
LINE
8
layer0
10
3.2975504
20
-5.5433649
11
3.225
21
-5.5858639
0
LINE
8
layer0
10
3.225
20
-5.5858639
11
3.1519196
21
-5.6274449
0
LINE
8
layer0
10
3.1519196
20
-5.6274449
11
2.9188589
21
-5.7517719
0
LINE
8
layer0
10
2.9188589
20
-5.7517719
11
2.8958626
21
-5.7670811
0
LINE
8
layer0
10
2.8958626
20
-5.7670811
11
2.8795607
21
-5.7830055
0
LINE
8
layer0
10
2.8795607
20
-5.7830055
11
2.8652588
21
-5.8020938
0
LINE
8
layer0
10
2.8652588
20
-5.8020938
11
2.8530743
21
-5.8242897
0
LINE
8
layer0
10
2.8530743
20
-5.8242897
11
2.8431273
21
-5.8495009
0
LINE
8
layer0
10
2.8431273
20
-5.8495009
11
2.8304673
21
-5.9086331
0
LINE
8
layer0
10
2.8304673
20
-5.9086331
11
2.8281897
21
-5.9787682
0
LINE
8
layer0
10
2.8281897
20
-5.9787682
11
2.8371841
21
-6.059127
0
LINE
8
layer0
10
2.8371841
20
-6.059127
11
2.8582865
21
-6.1488574
0
LINE
8
layer0
10
2.8582865
20
-6.1488574
11
2.8922904
21
-6.247074
0
LINE
8
layer0
10
2.8922904
20
-6.247074
11
2.9399236
21
-6.352837
0
LINE
8
layer0
10
2.9399236
20
-6.352837
11
2.9659578
21
-6.4038896
0
LINE
8
layer0
10
2.9659578
20
-6.4038896
11
2.9967742
21
-6.5010251
0
LINE
8
layer0
10
2.9967742
20
-6.5010251
11
3.0239934
21
-6.6279502
0
LINE
8
layer0
10
3.0239934
20
-6.6279502
11
3.0364254
21
-6.7098231
0
LINE
8
layer0
10
3.0364254
20
-6.7098231
11
3.0468459
21
-6.8051319
0
LINE
8
layer0
10
3.0468459
20
-6.8051319
11
3.0541031
21
-6.9129017
0
LINE
8
layer0
10
3.0541031
20
-6.9129017
11
3.0571482
21
-7.032976
0
LINE
8
layer0
10
3.0571482
20
-7.032976
11
3.0548695
21
-7.1683292
0
LINE
8
layer0
10
3.0548695
20
-7.1683292
11
3.046404
21
-7.3120465
0
LINE
8
layer0
10
3.046404
20
-7.3120465
11
3.0305821
21
-7.4689021
0
LINE
8
layer0
10
3.0305821
20
-7.4689021
11
3.0065043
21
-7.6368982
0
LINE
8
layer0
10
3.0065043
20
-7.6368982
11
2.9730634
21
-7.8163969
0
LINE
8
layer0
10
2.9730634
20
-7.8163969
11
2.9366212
21
-7.9765838
0
ARC
8
layer0
10
-0.0000066
20
0.0000206
40
8.5
50
285.7885556
51
290.2114428
0
LINE
8
layer0
10
2.3127418
20
-8.1792945
11
2.189104
21
-8.0711208
0
LINE
8
layer0
10
2.189104
20
-8.0711208
11
2.0565431
21
-7.9455593
0
LINE
8
layer0
10
2.0565431
20
-7.9455593
11
1.9383181
21
-7.8238002
0
LINE
8
layer0
10
1.9383181
20
-7.8238002
11
1.8333205
21
-7.7062012
0
LINE
8
layer0
10
1.8333205
20
-7.7062012
11
1.7419968
21
-7.5949074
0
LINE
8
layer0
10
1.7419968
20
-7.5949074
11
1.6605947
21
-7.4867438
0
LINE
8
layer0
10
1.6605947
20
-7.4867438
11
1.5924804
21
-7.3878117
0
LINE
8
layer0
10
1.5924804
20
-7.3878117
11
1.5350061
21
-7.2963584
0
LINE
8
layer0
10
1.5350061
20
-7.2963584
11
1.4874153
21
-7.213127
0
LINE
8
layer0
10
1.4874153
20
-7.213127
11
1.4493493
21
-7.1395831
0
LINE
8
layer0
10
1.4493493
20
-7.1395831
11
1.3967655
21
-7.0208995
0
LINE
8
layer0
10
1.3967655
20
-7.0208995
11
1.3646016
21
-6.9242018
0
LINE
8
layer0
10
1.3646016
20
-6.9242018
11
1.3556558
21
-6.8675968
0
LINE
8
layer0
10
1.3556558
20
-6.8675968
11
1.3320258
21
-6.7540347
0
LINE
8
layer0
10
1.3320258
20
-6.7540347
11
1.3018054
21
-6.6545888
0
LINE
8
layer0
10
1.3018054
20
-6.6545888
11
1.2661353
21
-6.5695917
0
LINE
8
layer0
10
1.2661353
20
-6.5695917
11
1.2261783
21
-6.4992933
0
LINE
8
layer0
10
1.2261783
20
-6.4992933
11
1.1831113
21
-6.4438915
0
LINE
8
layer0
10
1.1831113
20
-6.4438915
11
1.1381121
21
-6.4034939
0
LINE
8
layer0
10
1.1381121
20
-6.4034939
11
1.115246
21
-6.3889444
0
LINE
8
layer0
10
1.115246
20
-6.3889444
11
1.0923421
21
-6.3781493
0
LINE
8
layer0
10
1.0923421
20
-6.3781493
11
1.0695518
21
-6.371113
0
LINE
8
layer0
10
1.0695518
20
-6.371113
11
1.0470032
21
-6.3678119
0
LINE
8
layer0
10
1.0470032
20
-6.3678119
11
1.0194002
21
-6.3689434
0
LINE
8
layer0
10
1.0194002
20
-6.3689434
11
0.7577726
21
-6.4053504
0
LINE
8
layer0
10
0.7577726
20
-6.4053504
11
0.6742086
21
-6.4146662
0
LINE
8
layer0
10
0.6742086
20
-6.4146662
11
0.5905338
21
-6.4229279
0
LINE
8
layer0
10
0.5905338
20
-6.4229279
11
0.3270539
21
-6.4417119
0
LINE
8
layer0
10
0.3270539
20
-6.4417119
11
0.2998189
21
-6.4463441
0
LINE
8
layer0
10
0.2998189
20
-6.4463441
11
0.2784494
21
-6.4542612
0
LINE
8
layer0
10
0.2784494
20
-6.4542612
11
0.25762
21
-6.4658822
0
LINE
8
layer0
10
0.25762
20
-6.4658822
11
0.2374611
21
-6.4812033
0
LINE
8
layer0
10
0.2374611
20
-6.4812033
11
0.2181196
21
-6.500189
0
LINE
8
layer0
10
0.2181196
20
-6.500189
11
0.1825029
21
-6.5490597
0
LINE
8
layer0
10
0.1825029
20
-6.5490597
11
0.1518957
21
-6.6122049
0
LINE
8
layer0
10
0.1518957
20
-6.6122049
11
0.1274277
21
-6.6892747
0
LINE
8
layer0
10
0.1274277
20
-6.6892747
11
0.110209
21
-6.7798306
0
LINE
8
layer0
10
0.110209
20
-6.7798306
11
0.1013249
21
-6.8833866
0
LINE
8
layer0
10
0.1013249
20
-6.8833866
11
0.1018222
21
-6.99938
0
LINE
8
layer0
10
0.1018222
20
-6.99938
11
0.1048407
21
-7.056608
0
LINE
8
layer0
10
0.1048407
20
-7.056608
11
0.0934843
21
-7.1578798
0
LINE
8
layer0
10
0.0934843
20
-7.1578798
11
0.0667252
21
-7.2849028
0
LINE
8
layer0
10
0.0667252
20
-7.2849028
11
0.0447817
21
-7.3647539
0
LINE
8
layer0
10
0.0447817
20
-7.3647539
11
0.0155357
21
-7.4560612
0
LINE
8
layer0
10
0.0155357
20
-7.4560612
11
-0.0216684
21
-7.5574656
0
LINE
8
layer0
10
-0.0216684
20
-7.5574656
11
-0.0677252
21
-7.6683975
0
LINE
8
layer0
10
-0.0677252
20
-7.6683975
11
-0.12486
21
-7.791122
0
LINE
8
layer0
10
-0.12486
20
-7.791122
11
-0.1910487
21
-7.918971
0
LINE
8
layer0
10
-0.1910487
20
-7.918971
11
-0.2693017
21
-8.0558304
0
LINE
8
layer0
10
-0.2693017
20
-8.0558304
11
-0.359628
21
-8.1995091
0
LINE
8
layer0
10
-0.359628
20
-8.1995091
11
-0.4631865
21
-8.3498877
0
LINE
8
layer0
10
-0.4631865
20
-8.3498877
11
-0.5616319
21
-8.4814034
0
ARC
8
layer0
10
0.0000028
20
0.0000214
40
8.5
50
261.7885533
51
266.2114401
0
LINE
8
layer0
10
-1.214024
20
-8.4128342
11
-1.2829746
21
-8.2637245
0
LINE
8
layer0
10
-1.2829746
20
-8.2637245
11
-1.3530046
21
-8.095101
0
LINE
8
layer0
10
-1.3530046
20
-8.095101
11
-1.4114845
21
-7.9357821
0
LINE
8
layer0
10
-1.4114845
20
-7.9357821
11
-1.4595728
21
-7.7856437
0
LINE
8
layer0
10
-1.4595728
20
-7.7856437
11
-1.4977339
21
-7.6468271
0
LINE
8
layer0
10
-1.4977339
20
-7.6468271
11
-1.5281042
21
-7.5149055
0
LINE
8
layer0
10
-1.5281042
20
-7.5149055
11
-1.5500905
21
-7.3968219
0
LINE
8
layer0
10
-1.5500905
20
-7.3968219
11
-1.5653985
21
-7.2898983
0
LINE
8
layer0
10
-1.5653985
20
-7.2898983
11
-1.5750216
21
-7.1945057
0
LINE
8
layer0
10
-1.5750216
20
-7.1945057
11
-1.5798836
21
-7.1118372
0
LINE
8
layer0
10
-1.5798836
20
-7.1118372
11
-1.5796483
21
-6.9820265
0
LINE
8
layer0
10
-1.5796483
20
-6.9820265
11
-1.569701
21
-6.8806066
0
LINE
8
layer0
10
-1.569701
20
-6.8806066
11
-1.5548501
21
-6.8252567
0
LINE
8
layer0
10
-1.5548501
20
-6.8252567
11
-1.5302472
21
-6.7119014
0
LINE
8
layer0
10
-1.5302472
20
-6.7119014
11
-1.5174067
21
-6.6087613
0
LINE
8
layer0
10
-1.5174067
20
-6.6087613
11
-1.5154215
21
-6.5166043
0
LINE
8
layer0
10
-1.5154215
20
-6.5166043
11
-1.5233311
21
-6.4361315
0
LINE
8
layer0
10
-1.5233311
20
-6.4361315
11
-1.5401409
21
-6.3680025
0
LINE
8
layer0
10
-1.5401409
20
-6.3680025
11
-1.5648185
21
-6.3127947
0
LINE
8
layer0
10
-1.5648185
20
-6.3127947
11
-1.5797899
21
-6.2902025
0
LINE
8
layer0
10
-1.5797899
20
-6.2902025
11
-1.5963229
21
-6.2710249
0
LINE
8
layer0
10
-1.5963229
20
-6.2710249
11
-1.614281
21
-6.2553273
0
LINE
8
layer0
10
-1.614281
20
-6.2553273
11
-1.6335374
21
-6.2431402
0
LINE
8
layer0
10
-1.6335374
20
-6.2431402
11
-1.6592142
21
-6.2329467
0
LINE
8
layer0
10
-1.6592142
20
-6.2329467
11
-1.913031
21
-6.1597926
0
LINE
8
layer0
10
-1.913031
20
-6.1597926
11
-1.9931596
21
-6.1343145
0
LINE
8
layer0
10
-1.9931596
20
-6.1343145
11
-2.0729607
21
-6.1078283
0
LINE
8
layer0
10
-2.0729607
20
-6.1078283
11
-2.3213017
21
-6.0178215
0
LINE
8
layer0
10
-2.3213017
20
-6.0178215
11
-2.3480662
21
-6.0109757
0
LINE
8
layer0
10
-2.3480662
20
-6.0109757
11
-2.3708084
21
-6.0095166
0
LINE
8
layer0
10
-2.3708084
20
-6.0095166
11
-2.3945636
21
-6.0116608
0
LINE
8
layer0
10
-2.3945636
20
-6.0116608
11
-2.4192114
21
-6.0174579
0
LINE
8
layer0
10
-2.4192114
20
-6.0174579
11
-2.4446028
21
-6.0269354
0
LINE
8
layer0
10
-2.4446028
20
-6.0269354
11
-2.4970178
21
-6.0570943
0
LINE
8
layer0
10
-2.4970178
20
-6.0570943
11
-2.5506624
21
-6.1023313
0
LINE
8
layer0
10
-2.5506624
20
-6.1023313
11
-2.6043622
21
-6.162786
0
LINE
8
layer0
10
-2.6043622
20
-6.162786
11
-2.6569246
21
-6.2385095
0
LINE
8
layer0
10
-2.6569246
20
-6.2385095
11
-2.7071607
21
-6.3294991
0
LINE
8
layer0
10
-2.7071607
20
-6.3294991
11
-2.7538851
21
-6.4356667
0
LINE
8
layer0
10
-2.7538851
20
-6.4356667
11
-2.7744043
21
-6.4891747
0
LINE
8
layer0
10
-2.7744043
20
-6.4891747
11
-2.8259699
21
-6.5770721
0
LINE
8
layer0
10
-2.8259699
20
-6.5770721
11
-2.9020804
21
-6.6822294
0
LINE
8
layer0
10
-2.9020804
20
-6.6822294
11
-2.9546051
21
-6.7462519
0
LINE
8
layer0
10
-2.9546051
20
-6.7462519
11
-3.0184607
21
-6.8177697
0
LINE
8
layer0
10
-3.0184607
20
-6.8177697
11
-3.0936933
21
-6.895275
0
LINE
8
layer0
10
-3.0936933
20
-6.895275
11
-3.1808883
21
-6.9778834
0
LINE
8
layer0
10
-3.1808883
20
-6.9778834
11
-3.2830001
21
-7.066759
0
LINE
8
layer0
10
-3.2830001
20
-7.066759
11
-3.3954674
21
-7.1566335
0
LINE
8
layer0
10
-3.3954674
20
-7.1566335
11
-3.5226207
21
-7.2498324
0
LINE
8
layer0
10
-3.5226207
20
-7.2498324
11
-3.6635773
21
-7.3443504
0
LINE
8
layer0
10
-3.6635773
20
-7.3443504
11
-3.8193472
21
-7.4396071
0
LINE
8
layer0
10
-3.8193472
20
-7.4396071
11
-3.9627738
21
-7.5197112
0
ARC
8
layer0
10
0.0000108
20
0.0000187
40
8.5
50
237.7885566
51
242.2114436
0
LINE
8
layer0
10
-4.530874
20
-7.1917184
11
-4.5332152
21
-7.0274552
0
LINE
8
layer0
10
-4.5332152
20
-7.0274552
11
-4.5286054
21
-6.8449263
0
LINE
8
layer0
10
-4.5286054
20
-6.8449263
11
-4.5172286
21
-6.6755952
0
LINE
8
layer0
10
-4.5172286
20
-6.6755952
11
-4.5000927
21
-6.5188777
0
LINE
8
layer0
10
-4.5000927
20
-6.5188777
11
-4.4784928
21
-6.376541
0
LINE
8
layer0
10
-4.4784928
20
-6.376541
11
-4.4525801
21
-6.2436718
0
LINE
8
layer0
10
-4.4525801
20
-6.2436718
11
-4.4246367
21
-6.1268545
0
LINE
8
layer0
10
-4.4246367
20
-6.1268545
11
-4.3951315
21
-6.0229485
0
LINE
8
layer0
10
-4.3951315
20
-6.0229485
11
-4.3651229
21
-5.931889
0
LINE
8
layer0
10
-4.3651229
20
-5.931889
11
-4.3359403
21
-5.85439
0
LINE
8
layer0
10
-4.3359403
20
-5.85439
11
-4.2829266
21
-5.7358977
0
LINE
8
layer0
10
-4.2829266
20
-5.7358977
11
-4.232588
21
-5.647292
0
LINE
8
layer0
10
-4.232588
20
-5.647292
11
-4.1965083
21
-5.6027678
0
LINE
8
layer0
10
-4.1965083
20
-5.6027678
11
-4.1279267
21
-5.5092194
0
LINE
8
layer0
10
-4.1279267
20
-5.5092194
11
-4.0742454
21
-5.420219
0
LINE
8
layer0
10
-4.0742454
20
-5.420219
11
-4.0349482
21
-5.3368368
0
LINE
8
layer0
10
-4.0349482
20
-5.3368368
11
-4.0094428
21
-5.2601041
0
LINE
8
layer0
10
-4.0094428
20
-5.2601041
11
-3.9970887
21
-5.1910281
0
LINE
8
layer0
10
-3.9970887
20
-5.1910281
11
-3.9971777
21
-5.1305559
0
LINE
8
layer0
10
-3.9971777
20
-5.1305559
11
-4.0016657
21
-5.1038275
0
LINE
8
layer0
10
-4.0016657
20
-5.1038275
11
-4.0089691
21
-5.0795833
0
LINE
8
layer0
10
-4.0089691
20
-5.0795833
11
-4.0189898
21
-5.0579386
0
LINE
8
layer0
10
-4.0189898
20
-5.0579386
11
-4.0316246
21
-5.0389728
0
LINE
8
layer0
10
-4.0316246
20
-5.0389728
11
-4.0509354
21
-5.019217
0
LINE
8
layer0
10
-4.0509354
20
-5.019217
11
-4.2530542
21
-4.8491508
0
LINE
8
layer0
10
-4.2530542
20
-4.8491508
11
-4.3158924
21
-4.7932841
0
LINE
8
layer0
10
-4.3158924
20
-4.7932841
11
-4.3780214
21
-4.7366298
0
LINE
8
layer0
10
-4.3780214
20
-4.7366298
11
-4.5682831
21
-4.553395
0
LINE
8
layer0
10
-4.5682831
20
-4.553395
11
-4.5899493
21
-4.536255
0
LINE
8
layer0
10
-4.5899493
20
-4.536255
11
-4.6101318
21
-4.525672
0
LINE
8
layer0
10
-4.6101318
20
-4.525672
11
-4.6327054
21
-4.5179686
0
LINE
8
layer0
10
-4.6327054
20
-4.5179686
11
-4.6575802
21
-4.5132394
0
LINE
8
layer0
10
-4.6575802
20
-4.5132394
11
-4.6846313
21
-4.5115699
0
LINE
8
layer0
10
-4.6846313
20
-4.5115699
11
-4.7447815
21
-4.5178024
0
LINE
8
layer0
10
-4.7447815
20
-4.5178024
11
-4.8121878
21
-4.5373092
0
LINE
8
layer0
10
-4.8121878
20
-4.5373092
11
-4.8858341
21
-4.5706957
0
LINE
8
layer0
10
-4.8858341
20
-4.5706957
11
-4.9646518
21
-4.6184934
0
LINE
8
layer0
10
-4.9646518
20
-4.6184934
11
-5.0475535
21
-4.6811837
0
LINE
8
layer0
10
-5.0475535
20
-4.6811837
11
-5.1334207
21
-4.7591681
0
LINE
8
layer0
10
-5.1334207
20
-4.7591681
11
-5.1739296
21
-4.7997042
0
LINE
8
layer0
10
-5.1739296
20
-4.7997042
11
-5.2567882
21
-4.8590289
0
LINE
8
layer0
10
-5.2567882
20
-4.8590289
11
-5.3690899
21
-4.9241379
0
LINE
8
layer0
10
-5.3690899
20
-4.9241379
11
-5.4431139
21
-4.9612616
0
LINE
8
layer0
10
-5.4431139
20
-4.9612616
11
-5.5305378
21
-5.000624
0
LINE
8
layer0
10
-5.5305378
20
-5.000624
11
-5.6307904
21
-5.0408287
0
LINE
8
layer0
10
-5.6307904
20
-5.0408287
11
-5.7440469
21
-5.0808298
0
LINE
8
layer0
10
-5.7440469
20
-5.0808298
11
-5.8734796
21
-5.1204891
0
LINE
8
layer0
10
-5.8734796
20
-5.1204891
11
-6.0127789
21
-5.156849
0
LINE
8
layer0
10
-6.0127789
20
-5.156849
11
-6.1668467
21
-5.1902725
0
LINE
8
layer0
10
-6.1668467
20
-5.1902725
11
-6.3340609
21
-5.2192868
0
LINE
8
layer0
10
-6.3340609
20
-5.2192868
11
-6.5151081
21
-5.2429508
0
LINE
8
layer0
10
-6.5151081
20
-5.2429508
11
-6.6787161
21
-5.2577927
0
ARC
8
layer0
10
0.0000173
20
0.000013
40
8.5
50
213.7885588
51
218.211446
0
LINE
8
layer0
10
-7.0642948
20
-4.7270892
11
-6.9996217
21
-4.5760751
0
LINE
8
layer0
10
-6.9996217
20
-4.5760751
11
-6.9211692
21
-4.4112015
0
LINE
8
layer0
10
-6.9211692
20
-4.4112015
11
-6.8419029
21
-4.2611373
0
LINE
8
layer0
10
-6.8419029
20
-4.2611373
11
-6.7625057
21
-4.1249385
0
LINE
8
layer0
10
-6.7625057
20
-4.1249385
11
-6.6848796
21
-4.0036929
0
LINE
8
layer0
10
-6.6848796
20
-4.0036929
11
-6.6071644
21
-3.8928505
0
LINE
8
layer0
10
-6.6071644
20
-3.8928505
11
-6.5341229
21
-3.7974982
0
LINE
8
layer0
10
-6.5341229
20
-3.7974982
11
-6.4649062
21
-3.7145762
0
LINE
8
layer0
10
-6.4649062
20
-3.7145762
11
-6.4004549
21
-3.6435948
0
LINE
8
layer0
10
-6.4004549
20
-3.6435948
11
-6.3422735
21
-3.5846657
0
LINE
8
layer0
10
-6.3422735
20
-3.5846657
11
-6.2456479
21
-3.4979801
0
LINE
8
layer0
10
-6.2456479
20
-3.4979801
11
-6.1636221
21
-3.4375093
0
LINE
8
layer0
10
-6.1636221
20
-3.4375093
11
-6.112552
21
-3.4115094
0
LINE
8
layer0
10
-6.112552
20
-3.4115094
11
-6.0118501
21
-3.3539434
0
LINE
8
layer0
10
-6.0118501
20
-3.3539434
11
-5.9266101
21
-3.2944715
0
LINE
8
layer0
10
-5.9266101
20
-3.2944715
11
-5.8567957
21
-3.2342818
0
LINE
8
layer0
10
-5.8567957
20
-3.2342818
11
-5.8022853
21
-3.1745569
0
LINE
8
layer0
10
-5.8022853
20
-3.1745569
11
-5.7629035
21
-3.1164777
0
LINE
8
layer0
10
-5.7629035
20
-3.1164777
11
-5.7383886
21
-3.0611973
0
LINE
8
layer0
10
-5.7383886
20
-3.0611973
11
-5.7316172
21
-3.0349543
0
LINE
8
layer0
10
-5.7316172
20
-3.0349543
11
-5.7284282
21
-3.0098356
0
LINE
8
layer0
10
-5.7284282
20
-3.0098356
11
-5.7287789
21
-2.9859864
0
LINE
8
layer0
10
-5.7287789
20
-2.9859864
11
-5.7326072
21
-2.9635213
0
LINE
8
layer0
10
-5.7326072
20
-2.9635213
11
-5.7422131
21
-2.937619
0
LINE
8
layer0
10
-5.7422131
20
-2.937619
11
-5.8576856
21
-2.7000467
0
LINE
8
layer0
10
-5.8576856
20
-2.7000467
11
-5.8923682
21
-2.6234513
0
LINE
8
layer0
10
-5.8923682
20
-2.6234513
11
-5.9260824
21
-2.5464249
0
LINE
8
layer0
10
-5.9260824
20
-2.5464249
11
-6.0253669
21
-2.3016452
0
LINE
8
layer0
10
-6.0253669
20
-2.3016452
11
-6.0381885
21
-2.2771746
0
LINE
8
layer0
10
-6.0381885
20
-2.2771746
11
-6.0523216
21
-2.2592975
0
LINE
8
layer0
10
-6.0523216
20
-2.2592975
11
-6.0698104
21
-2.2430786
0
LINE
8
layer0
10
-6.0698104
20
-2.2430786
11
-6.0906111
21
-2.2286408
0
LINE
8
layer0
10
-6.0906111
20
-2.2286408
11
-6.1146444
21
-2.216113
0
LINE
8
layer0
10
-6.1146444
20
-2.216113
11
-6.1721294
21
-2.1973413
0
LINE
8
layer0
10
-6.1721294
20
-2.1973413
11
-6.2416422
21
-2.1877451
0
LINE
8
layer0
10
-6.2416422
20
-2.1877451
11
-6.322501
21
-2.1882905
0
LINE
8
layer0
10
-6.322501
20
-2.1882905
11
-6.4139457
21
-2.1998979
0
LINE
8
layer0
10
-6.4139457
20
-2.1998979
11
-6.5151785
21
-2.2234491
0
LINE
8
layer0
10
-6.5151785
20
-2.2234491
11
-6.6253412
21
-2.2597661
0
LINE
8
layer0
10
-6.6253412
20
-2.2597661
11
-6.6788355
21
-2.2803212
0
LINE
8
layer0
10
-6.6788355
20
-2.2803212
11
-6.77866
21
-2.3008154
0
LINE
8
layer0
10
-6.77866
20
-2.3008154
11
-6.907735
21
-2.3146182
0
LINE
8
layer0
10
-6.907735
20
-2.3146182
11
-6.9904589
21
-2.3184241
0
LINE
8
layer0
10
-6.9904589
20
-2.3184241
11
-7.0863347
21
-2.318825
0
LINE
8
layer0
10
-7.0863347
20
-2.318825
11
-7.1942728
21
-2.3147774
0
LINE
8
layer0
10
-7.1942728
20
-2.3147774
11
-7.3140076
21
-2.3052547
0
LINE
8
layer0
10
-7.3140076
20
-2.3052547
11
-7.4483812
21
-2.2888402
0
LINE
8
layer0
10
-7.4483812
20
-2.2888402
11
-7.5904263
21
-2.2653985
0
LINE
8
layer0
10
-7.5904263
20
-2.2653985
11
-7.7447688
21
-2.2332674
0
LINE
8
layer0
10
-7.7447688
20
-2.2332674
11
-7.9093277
21
-2.1917611
0
LINE
8
layer0
10
-7.9093277
20
-2.1917611
11
-8.0843476
21
-2.1397407
0
LINE
8
layer0
10
-8.0843476
20
-2.1397407
11
-8.2398477
21
-2.0867541
0
ARC
8
layer0
10
0.0000211
20
0.0000049
40
8.5
50
189.7885598
51
194.2114466
0
LINE
8
layer0
10
-8.3762348
20
-1.4451033
11
-8.25573
21
-1.33345
0
LINE
8
layer0
10
-8.25573
20
-1.33345
11
-8.117
21
-1.21474
0
LINE
8
layer0
10
-8.117
20
-1.21474
11
-7.98355
21
-1.10989
0
LINE
8
layer0
10
-7.98355
20
-1.10989
11
-7.85562
21
-1.01776
0
LINE
8
layer0
10
-7.85562
20
-1.01776
11
-7.73539
21
-0.93857
0
LINE
8
layer0
10
-7.73539
20
-0.93857
11
-7.61931
21
-0.86892
0
LINE
8
layer0
10
-7.61931
20
-0.86892
11
-7.5138
21
-0.81152
0
LINE
8
layer0
10
-7.5138
20
-0.81152
11
-7.41684
21
-0.76392
0
LINE
8
layer0
10
-7.41684
20
-0.76392
11
-7.32909
21
-0.72529
0
LINE
8
layer0
10
-7.32909
20
-0.72529
11
-7.25197
21
-0.69512
0
LINE
8
layer0
10
-7.25197
20
-0.69512
11
-7.12844
21
-0.65523
0
LINE
8
layer0
10
-7.12844
20
-0.65523
11
-7.02891
21
-0.63335
0
LINE
8
layer0
10
-7.02891
20
-0.63335
11
-6.97168
21
-0.63037
0
LINE
8
layer0
10
-6.97168
20
-0.63037
11
-6.85627
21
-0.61874
0
LINE
8
layer0
10
-6.85627
20
-0.61874
11
-6.75421
21
-0.59908
0
LINE
8
layer0
10
-6.75421
20
-0.59908
11
-6.66595
21
-0.57249
0
LINE
8
layer0
10
-6.66595
20
-0.57249
11
-6.59186
21
-0.5401
0
LINE
8
layer0
10
-6.59186
20
-0.5401
11
-6.53226
21
-0.50306
0
LINE
8
layer0
10
-6.53226
20
-0.50306
11
-6.48738
21
-0.46253
0
LINE
8
layer0
10
-6.48738
20
-0.46253
11
-6.47052
21
-0.44131
0
LINE
8
layer0
10
-6.47052
20
-0.44131
11
-6.45739
21
-0.41966
0
LINE
8
layer0
10
-6.45739
20
-0.41966
11
-6.44801
21
-0.39773
0
LINE
8
layer0
10
-6.44801
20
-0.39773
11
-6.44237
21
-0.37565
0
LINE
8
layer0
10
-6.44237
20
-0.37565
11
-6.44061
21
-0.34808
0
LINE
8
layer0
10
-6.44061
20
-0.34808
11
-6.44947
21
-0.08408
0
LINE
8
layer0
10
-6.44947
20
-0.08408
11
-6.45
21
0
0
LINE
8
layer0
10
-6.45
20
0
11
-6.44947
21
0.08408
0
LINE
8
layer0
10
-6.44947
20
0.08408
11
-6.44061
21
0.34808
0
LINE
8
layer0
10
-6.44061
20
0.34808
11
-6.44237
21
0.37565
0
LINE
8
layer0
10
-6.44237
20
0.37565
11
-6.44801
21
0.39773
0
LINE
8
layer0
10
-6.44801
20
0.39773
11
-6.45739
21
0.41966
0
LINE
8
layer0
10
-6.45739
20
0.41966
11
-6.47052
21
0.44131
0
LINE
8
layer0
10
-6.47052
20
0.44131
11
-6.48738
21
0.46253
0
LINE
8
layer0
10
-6.48738
20
0.46253
11
-6.53226
21
0.50306
0
LINE
8
layer0
10
-6.53226
20
0.50306
11
-6.59186
21
0.5401
0
LINE
8
layer0
10
-6.59186
20
0.5401
11
-6.66595
21
0.57249
0
LINE
8
layer0
10
-6.66595
20
0.57249
11
-6.75421
21
0.59908
0
LINE
8
layer0
10
-6.75421
20
0.59908
11
-6.85627
21
0.61874
0
LINE
8
layer0
10
-6.85627
20
0.61874
11
-6.97168
21
0.63037
0
LINE
8
layer0
10
-6.97168
20
0.63037
11
-7.02891
21
0.63335
0
LINE
8
layer0
10
-7.02891
20
0.63335
11
-7.12844
21
0.65523
0
LINE
8
layer0
10
-7.12844
20
0.65523
11
-7.25197
21
0.69512
0
LINE
8
layer0
10
-7.25197
20
0.69512
11
-7.32909
21
0.72529
0
LINE
8
layer0
10
-7.32909
20
0.72529
11
-7.41684
21
0.76392
0
LINE
8
layer0
10
-7.41684
20
0.76392
11
-7.5138
21
0.81152
0
LINE
8
layer0
10
-7.5138
20
0.81152
11
-7.61931
21
0.86892
0
LINE
8
layer0
10
-7.61931
20
0.86892
11
-7.73539
21
0.93857
0
LINE
8
layer0
10
-7.73539
20
0.93857
11
-7.85562
21
1.01776
0
LINE
8
layer0
10
-7.85562
20
1.01776
11
-7.98355
21
1.10989
0
LINE
8
layer0
10
-7.98355
20
1.10989
11
-8.117
21
1.21474
0
LINE
8
layer0
10
-8.117
20
1.21474
11
-8.25573
21
1.33345
0
LINE
8
layer0
10
-8.25573
20
1.33345
11
-8.3762348
21
1.4451033
0
ARC
8
layer0
10
0.0000211
20
-0.0000049
40
8.5
50
165.7885541
51
170.2114409
0
LINE
8
layer0
10
-8.2398477
20
2.0867541
11
-8.0843476
21
2.1397407
0
LINE
8
layer0
10
-8.0843476
20
2.1397407
11
-7.9093277
21
2.1917611
0
LINE
8
layer0
10
-7.9093277
20
2.1917611
11
-7.7447688
21
2.2332674
0
LINE
8
layer0
10
-7.7447688
20
2.2332674
11
-7.5904263
21
2.2653985
0
LINE
8
layer0
10
-7.5904263
20
2.2653985
11
-7.4483812
21
2.2888402
0
LINE
8
layer0
10
-7.4483812
20
2.2888402
11
-7.3140076
21
2.3052547
0
LINE
8
layer0
10
-7.3140076
20
2.3052547
11
-7.1942728
21
2.3147774
0
LINE
8
layer0
10
-7.1942728
20
2.3147774
11
-7.0863347
21
2.318825
0
LINE
8
layer0
10
-7.0863347
20
2.318825
11
-6.9904589
21
2.3184241
0
LINE
8
layer0
10
-6.9904589
20
2.3184241
11
-6.907735
21
2.3146182
0
LINE
8
layer0
10
-6.907735
20
2.3146182
11
-6.77866
21
2.3008154
0
LINE
8
layer0
10
-6.77866
20
2.3008154
11
-6.6788355
21
2.2803212
0
LINE
8
layer0
10
-6.6788355
20
2.2803212
11
-6.6253412
21
2.2597661
0
LINE
8
layer0
10
-6.6253412
20
2.2597661
11
-6.5151785
21
2.2234491
0
LINE
8
layer0
10
-6.5151785
20
2.2234491
11
-6.4139457
21
2.1998979
0
LINE
8
layer0
10
-6.4139457
20
2.1998979
11
-6.322501
21
2.1882905
0
LINE
8
layer0
10
-6.322501
20
2.1882905
11
-6.2416422
21
2.1877451
0
LINE
8
layer0
10
-6.2416422
20
2.1877451
11
-6.1721294
21
2.1973413
0
LINE
8
layer0
10
-6.1721294
20
2.1973413
11
-6.1146444
21
2.216113
0
LINE
8
layer0
10
-6.1146444
20
2.216113
11
-6.0906111
21
2.2286408
0
LINE
8
layer0
10
-6.0906111
20
2.2286408
11
-6.0698104
21
2.2430786
0
LINE
8
layer0
10
-6.0698104
20
2.2430786
11
-6.0523216
21
2.2592975
0
LINE
8
layer0
10
-6.0523216
20
2.2592975
11
-6.0381885
21
2.2771746
0
LINE
8
layer0
10
-6.0381885
20
2.2771746
11
-6.0253669
21
2.3016452
0
LINE
8
layer0
10
-6.0253669
20
2.3016452
11
-5.9260824
21
2.5464249
0
LINE
8
layer0
10
-5.9260824
20
2.5464249
11
-5.8923682
21
2.6234513
0
LINE
8
layer0
10
-5.8923682
20
2.6234513
11
-5.8576856
21
2.7000467
0
LINE
8
layer0
10
-5.8576856
20
2.7000467
11
-5.7422131
21
2.937619
0
LINE
8
layer0
10
-5.7422131
20
2.937619
11
-5.7326072
21
2.9635213
0
LINE
8
layer0
10
-5.7326072
20
2.9635213
11
-5.7287789
21
2.9859864
0
LINE
8
layer0
10
-5.7287789
20
2.9859864
11
-5.7284282
21
3.0098356
0
LINE
8
layer0
10
-5.7284282
20
3.0098356
11
-5.7316172
21
3.0349543
0
LINE
8
layer0
10
-5.7316172
20
3.0349543
11
-5.7383886
21
3.0611973
0
LINE
8
layer0
10
-5.7383886
20
3.0611973
11
-5.7629035
21
3.1164777
0
LINE
8
layer0
10
-5.7629035
20
3.1164777
11
-5.8022853
21
3.1745569
0
LINE
8
layer0
10
-5.8022853
20
3.1745569
11
-5.8567957
21
3.2342818
0
LINE
8
layer0
10
-5.8567957
20
3.2342818
11
-5.9266101
21
3.2944715
0
LINE
8
layer0
10
-5.9266101
20
3.2944715
11
-6.0118501
21
3.3539434
0
LINE
8
layer0
10
-6.0118501
20
3.3539434
11
-6.112552
21
3.4115094
0
LINE
8
layer0
10
-6.112552
20
3.4115094
11
-6.1636221
21
3.4375093
0
LINE
8
layer0
10
-6.1636221
20
3.4375093
11
-6.2456479
21
3.4979801
0
LINE
8
layer0
10
-6.2456479
20
3.4979801
11
-6.3422735
21
3.5846657
0
LINE
8
layer0
10
-6.3422735
20
3.5846657
11
-6.4004549
21
3.6435948
0
LINE
8
layer0
10
-6.4004549
20
3.6435948
11
-6.4649062
21
3.7145762
0
LINE
8
layer0
10
-6.4649062
20
3.7145762
11
-6.5341229
21
3.7974982
0
LINE
8
layer0
10
-6.5341229
20
3.7974982
11
-6.6071644
21
3.8928505
0
LINE
8
layer0
10
-6.6071644
20
3.8928505
11
-6.6848796
21
4.0036929
0
LINE
8
layer0
10
-6.6848796
20
4.0036929
11
-6.7625057
21
4.1249385
0
LINE
8
layer0
10
-6.7625057
20
4.1249385
11
-6.8419029
21
4.2611373
0
LINE
8
layer0
10
-6.8419029
20
4.2611373
11
-6.9211692
21
4.4112015
0
LINE
8
layer0
10
-6.9211692
20
4.4112015
11
-6.9996217
21
4.5760751
0
LINE
8
layer0
10
-6.9996217
20
4.5760751
11
-7.0642948
21
4.7270892
0
ARC
8
layer0
10
0.0000172
20
-0.000013
40
8.5
50
141.7885536
51
146.2114408
0
LINE
8
layer0
10
-6.6787161
20
5.2577927
11
-6.5151081
21
5.2429508
0
LINE
8
layer0
10
-6.5151081
20
5.2429508
11
-6.3340609
21
5.2192868
0
LINE
8
layer0
10
-6.3340609
20
5.2192868
11
-6.1668467
21
5.1902725
0
LINE
8
layer0
10
-6.1668467
20
5.1902725
11
-6.0127789
21
5.156849
0
LINE
8
layer0
10
-6.0127789
20
5.156849
11
-5.8734796
21
5.1204891
0
LINE
8
layer0
10
-5.8734796
20
5.1204891
11
-5.7440469
21
5.0808298
0
LINE
8
layer0
10
-5.7440469
20
5.0808298
11
-5.6307904
21
5.0408287
0
LINE
8
layer0
10
-5.6307904
20
5.0408287
11
-5.5305378
21
5.000624
0
LINE
8
layer0
10
-5.5305378
20
5.000624
11
-5.4431139
21
4.9612616
0
LINE
8
layer0
10
-5.4431139
20
4.9612616
11
-5.3690899
21
4.9241379
0
LINE
8
layer0
10
-5.3690899
20
4.9241379
11
-5.2567882
21
4.8590289
0
LINE
8
layer0
10
-5.2567882
20
4.8590289
11
-5.1739296
21
4.7997042
0
LINE
8
layer0
10
-5.1739296
20
4.7997042
11
-5.1334207
21
4.7591681
0
LINE
8
layer0
10
-5.1334207
20
4.7591681
11
-5.0475535
21
4.6811837
0
LINE
8
layer0
10
-5.0475535
20
4.6811837
11
-4.9646518
21
4.6184934
0
LINE
8
layer0
10
-4.9646518
20
4.6184934
11
-4.8858341
21
4.5706957
0
LINE
8
layer0
10
-4.8858341
20
4.5706957
11
-4.8121878
21
4.5373092
0
LINE
8
layer0
10
-4.8121878
20
4.5373092
11
-4.7447815
21
4.5178024
0
LINE
8
layer0
10
-4.7447815
20
4.5178024
11
-4.6846313
21
4.5115699
0
LINE
8
layer0
10
-4.6846313
20
4.5115699
11
-4.6575802
21
4.5132394
0
LINE
8
layer0
10
-4.6575802
20
4.5132394
11
-4.6327054
21
4.5179686
0
LINE
8
layer0
10
-4.6327054
20
4.5179686
11
-4.6101318
21
4.525672
0
LINE
8
layer0
10
-4.6101318
20
4.525672
11
-4.5899493
21
4.536255
0
LINE
8
layer0
10
-4.5899493
20
4.536255
11
-4.5682831
21
4.553395
0
LINE
8
layer0
10
-4.5682831
20
4.553395
11
-4.3780214
21
4.7366298
0
LINE
8
layer0
10
-4.3780214
20
4.7366298
11
-4.3158924
21
4.7932841
0
LINE
8
layer0
10
-4.3158924
20
4.7932841
11
-4.2530542
21
4.8491508
0
LINE
8
layer0
10
-4.2530542
20
4.8491508
11
-4.0509354
21
5.019217
0
LINE
8
layer0
10
-4.0509354
20
5.019217
11
-4.0316246
21
5.0389728
0
LINE
8
layer0
10
-4.0316246
20
5.0389728
11
-4.0189898
21
5.0579386
0
LINE
8
layer0
10
-4.0189898
20
5.0579386
11
-4.0089691
21
5.0795833
0
LINE
8
layer0
10
-4.0089691
20
5.0795833
11
-4.0016657
21
5.1038275
0
LINE
8
layer0
10
-4.0016657
20
5.1038275
11
-3.9971777
21
5.1305559
0
LINE
8
layer0
10
-3.9971777
20
5.1305559
11
-3.9970887
21
5.1910281
0
LINE
8
layer0
10
-3.9970887
20
5.1910281
11
-4.0094428
21
5.2601041
0
LINE
8
layer0
10
-4.0094428
20
5.2601041
11
-4.0349482
21
5.3368368
0
LINE
8
layer0
10
-4.0349482
20
5.3368368
11
-4.0742454
21
5.420219
0
LINE
8
layer0
10
-4.0742454
20
5.420219
11
-4.1279267
21
5.5092194
0
LINE
8
layer0
10
-4.1279267
20
5.5092194
11
-4.1965083
21
5.6027678
0
LINE
8
layer0
10
-4.1965083
20
5.6027678
11
-4.232588
21
5.647292
0
LINE
8
layer0
10
-4.232588
20
5.647292
11
-4.2829266
21
5.7358977
0
LINE
8
layer0
10
-4.2829266
20
5.7358977
11
-4.3359403
21
5.85439
0
LINE
8
layer0
10
-4.3359403
20
5.85439
11
-4.3651229
21
5.931889
0
LINE
8
layer0
10
-4.3651229
20
5.931889
11
-4.3951315
21
6.0229485
0
LINE
8
layer0
10
-4.3951315
20
6.0229485
11
-4.4246367
21
6.1268545
0
LINE
8
layer0
10
-4.4246367
20
6.1268545
11
-4.4525801
21
6.2436718
0
LINE
8
layer0
10
-4.4525801
20
6.2436718
11
-4.4784928
21
6.376541
0
LINE
8
layer0
10
-4.4784928
20
6.376541
11
-4.5000927
21
6.5188777
0
LINE
8
layer0
10
-4.5000927
20
6.5188777
11
-4.5172286
21
6.6755952
0
LINE
8
layer0
10
-4.5172286
20
6.6755952
11
-4.5286054
21
6.8449263
0
LINE
8
layer0
10
-4.5286054
20
6.8449263
11
-4.5332152
21
7.0274552
0
LINE
8
layer0
10
-4.5332152
20
7.0274552
11
-4.530874
21
7.1917184
0
ARC
8
layer0
10
0.0000108
20
-0.0000187
40
8.5
50
117.7885564
51
122.2114434
0
LINE
8
layer0
10
-3.9627738
20
7.5197112
11
-3.8193472
21
7.4396071
0
LINE
8
layer0
10
-3.8193472
20
7.4396071
11
-3.6635773
21
7.3443504
0
LINE
8
layer0
10
-3.6635773
20
7.3443504
11
-3.5226207
21
7.2498324
0
LINE
8
layer0
10
-3.5226207
20
7.2498324
11
-3.3954674
21
7.1566335
0
LINE
8
layer0
10
-3.3954674
20
7.1566335
11
-3.2830001
21
7.066759
0
LINE
8
layer0
10
-3.2830001
20
7.066759
11
-3.1808883
21
6.9778834
0
LINE
8
layer0
10
-3.1808883
20
6.9778834
11
-3.0936933
21
6.895275
0
LINE
8
layer0
10
-3.0936933
20
6.895275
11
-3.0184607
21
6.8177697
0
LINE
8
layer0
10
-3.0184607
20
6.8177697
11
-2.9546051
21
6.7462519
0
LINE
8
layer0
10
-2.9546051
20
6.7462519
11
-2.9020804
21
6.6822294
0
LINE
8
layer0
10
-2.9020804
20
6.6822294
11
-2.8259699
21
6.5770721
0
LINE
8
layer0
10
-2.8259699
20
6.5770721
11
-2.7744043
21
6.4891747
0
LINE
8
layer0
10
-2.7744043
20
6.4891747
11
-2.7538851
21
6.4356667
0
LINE
8
layer0
10
-2.7538851
20
6.4356667
11
-2.7071607
21
6.3294991
0
LINE
8
layer0
10
-2.7071607
20
6.3294991
11
-2.6569246
21
6.2385095
0
LINE
8
layer0
10
-2.6569246
20
6.2385095
11
-2.6043622
21
6.162786
0
LINE
8
layer0
10
-2.6043622
20
6.162786
11
-2.5506624
21
6.1023313
0
LINE
8
layer0
10
-2.5506624
20
6.1023313
11
-2.4970178
21
6.0570943
0
LINE
8
layer0
10
-2.4970178
20
6.0570943
11
-2.4446028
21
6.0269354
0
LINE
8
layer0
10
-2.4446028
20
6.0269354
11
-2.4192114
21
6.0174579
0
LINE
8
layer0
10
-2.4192114
20
6.0174579
11
-2.3945636
21
6.0116608
0
LINE
8
layer0
10
-2.3945636
20
6.0116608
11
-2.3708084
21
6.0095166
0
LINE
8
layer0
10
-2.3708084
20
6.0095166
11
-2.3480662
21
6.0109757
0
LINE
8
layer0
10
-2.3480662
20
6.0109757
11
-2.3213017
21
6.0178215
0
LINE
8
layer0
10
-2.3213017
20
6.0178215
11
-2.0729607
21
6.1078283
0
LINE
8
layer0
10
-2.0729607
20
6.1078283
11
-1.9931596
21
6.1343145
0
LINE
8
layer0
10
-1.9931596
20
6.1343145
11
-1.913031
21
6.1597926
0
LINE
8
layer0
10
-1.913031
20
6.1597926
11
-1.6592142
21
6.2329467
0
LINE
8
layer0
10
-1.6592142
20
6.2329467
11
-1.6335374
21
6.2431402
0
LINE
8
layer0
10
-1.6335374
20
6.2431402
11
-1.614281
21
6.2553273
0
LINE
8
layer0
10
-1.614281
20
6.2553273
11
-1.5963229
21
6.2710249
0
LINE
8
layer0
10
-1.5963229
20
6.2710249
11
-1.5797899
21
6.2902025
0
LINE
8
layer0
10
-1.5797899
20
6.2902025
11
-1.5648185
21
6.3127947
0
LINE
8
layer0
10
-1.5648185
20
6.3127947
11
-1.5401409
21
6.3680025
0
LINE
8
layer0
10
-1.5401409
20
6.3680025
11
-1.5233311
21
6.4361315
0
LINE
8
layer0
10
-1.5233311
20
6.4361315
11
-1.5154215
21
6.5166043
0
LINE
8
layer0
10
-1.5154215
20
6.5166043
11
-1.5174067
21
6.6087613
0
LINE
8
layer0
10
-1.5174067
20
6.6087613
11
-1.5302472
21
6.7119014
0
LINE
8
layer0
10
-1.5302472
20
6.7119014
11
-1.5548501
21
6.8252567
0
LINE
8
layer0
10
-1.5548501
20
6.8252567
11
-1.569701
21
6.8806066
0
LINE
8
layer0
10
-1.569701
20
6.8806066
11
-1.5796483
21
6.9820265
0
LINE
8
layer0
10
-1.5796483
20
6.9820265
11
-1.5798836
21
7.1118372
0
LINE
8
layer0
10
-1.5798836
20
7.1118372
11
-1.5750216
21
7.1945057
0
LINE
8
layer0
10
-1.5750216
20
7.1945057
11
-1.5653985
21
7.2898983
0
LINE
8
layer0
10
-1.5653985
20
7.2898983
11
-1.5500905
21
7.3968219
0
LINE
8
layer0
10
-1.5500905
20
7.3968219
11
-1.5281042
21
7.5149055
0
LINE
8
layer0
10
-1.5281042
20
7.5149055
11
-1.4977339
21
7.6468271
0
LINE
8
layer0
10
-1.4977339
20
7.6468271
11
-1.4595728
21
7.7856437
0
LINE
8
layer0
10
-1.4595728
20
7.7856437
11
-1.4114845
21
7.9357821
0
LINE
8
layer0
10
-1.4114845
20
7.9357821
11
-1.3530046
21
8.095101
0
LINE
8
layer0
10
-1.3530046
20
8.095101
11
-1.2829746
21
8.2637245
0
LINE
8
layer0
10
-1.2829746
20
8.2637245
11
-1.214024
21
8.4128342
0
ARC
8
layer0
10
0.0000027
20
-0.0000214
40
8.5
50
93.7885599
51
98.2114467
0
LINE
8
layer0
10
-0.5616319
20
8.4814034
11
-0.4631865
21
8.3498877
0
LINE
8
layer0
10
-0.4631865
20
8.3498877
11
-0.359628
21
8.1995091
0
LINE
8
layer0
10
-0.359628
20
8.1995091
11
-0.2693017
21
8.0558304
0
LINE
8
layer0
10
-0.2693017
20
8.0558304
11
-0.1910487
21
7.918971
0
LINE
8
layer0
10
-0.1910487
20
7.918971
11
-0.12486
21
7.791122
0
LINE
8
layer0
10
-0.12486
20
7.791122
11
-0.0677252
21
7.6683975
0
LINE
8
layer0
10
-0.0677252
20
7.6683975
11
-0.0216684
21
7.5574656
0
LINE
8
layer0
10
-0.0216684
20
7.5574656
11
0.0155357
21
7.4560612
0
LINE
8
layer0
10
0.0155357
20
7.4560612
11
0.0447817
21
7.3647539
0
LINE
8
layer0
10
0.0447817
20
7.3647539
11
0.0667252
21
7.2849028
0
LINE
8
layer0
10
0.0667252
20
7.2849028
11
0.0934843
21
7.1578798
0
LINE
8
layer0
10
0.0934843
20
7.1578798
11
0.1048407
21
7.056608
0
LINE
8
layer0
10
0.1048407
20
7.056608
11
0.1018222
21
6.99938
0
LINE
8
layer0
10
0.1018222
20
6.99938
11
0.1013249
21
6.8833866
0
LINE
8
layer0
10
0.1013249
20
6.8833866
11
0.110209
21
6.7798306
0
LINE
8
layer0
10
0.110209
20
6.7798306
11
0.1274277
21
6.6892747
0
LINE
8
layer0
10
0.1274277
20
6.6892747
11
0.1518957
21
6.6122049
0
LINE
8
layer0
10
0.1518957
20
6.6122049
11
0.1825029
21
6.5490597
0
LINE
8
layer0
10
0.1825029
20
6.5490597
11
0.2181196
21
6.500189
0
LINE
8
layer0
10
0.2181196
20
6.500189
11
0.2374611
21
6.4812033
0
LINE
8
layer0
10
0.2374611
20
6.4812033
11
0.25762
21
6.4658822
0
LINE
8
layer0
10
0.25762
20
6.4658822
11
0.2784494
21
6.4542612
0
LINE
8
layer0
10
0.2784494
20
6.4542612
11
0.2998189
21
6.4463441
0
LINE
8
layer0
10
0.2998189
20
6.4463441
11
0.3270539
21
6.4417119
0
LINE
8
layer0
10
0.3270539
20
6.4417119
11
0.5905338
21
6.4229279
0
LINE
8
layer0
10
0.5905338
20
6.4229279
11
0.6742086
21
6.4146662
0
LINE
8
layer0
10
0.6742086
20
6.4146662
11
0.7577726
21
6.4053504
0
LINE
8
layer0
10
0.7577726
20
6.4053504
11
1.0194002
21
6.3689434
0
LINE
8
layer0
10
1.0194002
20
6.3689434
11
1.0470032
21
6.3678119
0
LINE
8
layer0
10
1.0470032
20
6.3678119
11
1.0695518
21
6.371113
0
LINE
8
layer0
10
1.0695518
20
6.371113
11
1.0923421
21
6.3781493
0
LINE
8
layer0
10
1.0923421
20
6.3781493
11
1.115246
21
6.3889444
0
LINE
8
layer0
10
1.115246
20
6.3889444
11
1.1381121
21
6.4034939
0
LINE
8
layer0
10
1.1381121
20
6.4034939
11
1.1831113
21
6.4438915
0
LINE
8
layer0
10
1.1831113
20
6.4438915
11
1.2261783
21
6.4992933
0
LINE
8
layer0
10
1.2261783
20
6.4992933
11
1.2661353
21
6.5695917
0
LINE
8
layer0
10
1.2661353
20
6.5695917
11
1.3018054
21
6.6545888
0
LINE
8
layer0
10
1.3018054
20
6.6545888
11
1.3320258
21
6.7540347
0
LINE
8
layer0
10
1.3320258
20
6.7540347
11
1.3556558
21
6.8675968
0
LINE
8
layer0
10
1.3556558
20
6.8675968
11
1.3646016
21
6.9242018
0
LINE
8
layer0
10
1.3646016
20
6.9242018
11
1.3967655
21
7.0208995
0
LINE
8
layer0
10
1.3967655
20
7.0208995
11
1.4493493
21
7.1395831
0
LINE
8
layer0
10
1.4493493
20
7.1395831
11
1.4874153
21
7.213127
0
LINE
8
layer0
10
1.4874153
20
7.213127
11
1.5350061
21
7.2963584
0
LINE
8
layer0
10
1.5350061
20
7.2963584
11
1.5924804
21
7.3878117
0
LINE
8
layer0
10
1.5924804
20
7.3878117
11
1.6605947
21
7.4867438
0
LINE
8
layer0
10
1.6605947
20
7.4867438
11
1.7419968
21
7.5949074
0
LINE
8
layer0
10
1.7419968
20
7.5949074
11
1.8333205
21
7.7062012
0
LINE
8
layer0
10
1.8333205
20
7.7062012
11
1.9383181
21
7.8238002
0
LINE
8
layer0
10
1.9383181
20
7.8238002
11
2.0565431
21
7.9455593
0
LINE
8
layer0
10
2.0565431
20
7.9455593
11
2.189104
21
8.0711208
0
LINE
8
layer0
10
2.189104
20
8.0711208
11
2.3127418
21
8.1792945
0
ARC
8
layer0
10
-0.0000067
20
-0.0000205
40
8.5
50
69.7885564
51
74.2114436
0
LINE
8
layer0
10
2.9366212
20
7.9765838
11
2.9730634
21
7.8163969
0
LINE
8
layer0
10
2.9730634
20
7.8163969
11
3.0065043
21
7.6368982
0
LINE
8
layer0
10
3.0065043
20
7.6368982
11
3.0305821
21
7.4689021
0
LINE
8
layer0
10
3.0305821
20
7.4689021
11
3.046404
21
7.3120465
0
LINE
8
layer0
10
3.046404
20
7.3120465
11
3.0548695
21
7.1683292
0
LINE
8
layer0
10
3.0548695
20
7.1683292
11
3.0571482
21
7.032976
0
LINE
8
layer0
10
3.0571482
20
7.032976
11
3.0541031
21
6.9129017
0
LINE
8
layer0
10
3.0541031
20
6.9129017
11
3.0468459
21
6.8051319
0
LINE
8
layer0
10
3.0468459
20
6.8051319
11
3.0364254
21
6.7098231
0
LINE
8
layer0
10
3.0364254
20
6.7098231
11
3.0239934
21
6.6279502
0
LINE
8
layer0
10
3.0239934
20
6.6279502
11
2.9967742
21
6.5010251
0
LINE
8
layer0
10
2.9967742
20
6.5010251
11
2.9659578
21
6.4038896
0
LINE
8
layer0
10
2.9659578
20
6.4038896
11
2.9399236
21
6.352837
0
LINE
8
layer0
10
2.9399236
20
6.352837
11
2.8922904
21
6.247074
0
LINE
8
layer0
10
2.8922904
20
6.247074
11
2.8582865
21
6.1488574
0
LINE
8
layer0
10
2.8582865
20
6.1488574
11
2.8371841
21
6.059127
0
LINE
8
layer0
10
2.8371841
20
6.059127
11
2.8281897
21
5.9787682
0
LINE
8
layer0
10
2.8281897
20
5.9787682
11
2.8304673
21
5.9086331
0
LINE
8
layer0
10
2.8304673
20
5.9086331
11
2.8431273
21
5.8495009
0
LINE
8
layer0
10
2.8431273
20
5.8495009
11
2.8530743
21
5.8242897
0
LINE
8
layer0
10
2.8530743
20
5.8242897
11
2.8652588
21
5.8020938
0
LINE
8
layer0
10
2.8652588
20
5.8020938
11
2.8795607
21
5.7830055
0
LINE
8
layer0
10
2.8795607
20
5.7830055
11
2.8958626
21
5.7670811
0
LINE
8
layer0
10
2.8958626
20
5.7670811
11
2.9188589
21
5.7517719
0
LINE
8
layer0
10
2.9188589
20
5.7517719
11
3.1519196
21
5.6274449
0
LINE
8
layer0
10
3.1519196
20
5.6274449
11
3.225
21
5.5858639
0
LINE
8
layer0
10
3.225
20
5.5858639
11
3.2975504
21
5.5433649
0
LINE
8
layer0
10
3.2975504
20
5.5433649
11
3.5217511
21
5.4036919
0
LINE
8
layer0
10
3.5217511
20
5.4036919
11
3.5465074
21
5.3914311
0
LINE
8
layer0
10
3.5465074
20
5.3914311
11
3.5684493
21
5.3852755
0
LINE
8
layer0
10
3.5684493
20
5.3852755
11
3.5921312
21
5.3824338
0
LINE
8
layer0
10
3.5921312
20
5.3824338
11
3.6174457
21
5.3829797
0
LINE
8
layer0
10
3.6174457
20
5.3829797
11
3.6442527
21
5.3869709
0
LINE
8
layer0
10
3.6442527
20
5.3869709
11
3.7017927
21
5.4055731
0
LINE
8
layer0
10
3.7017927
20
5.4055731
11
3.7636703
21
5.4386682
0
LINE
8
layer0
10
3.7636703
20
5.4386682
11
3.8287659
21
5.486637
0
LINE
8
layer0
10
3.8287659
20
5.486637
11
3.8959235
21
5.5497774
0
LINE
8
layer0
10
3.8959235
20
5.5497774
11
3.9639796
21
5.628334
0
LINE
8
layer0
10
3.9639796
20
5.628334
11
4.0317564
21
5.722467
0
LINE
8
layer0
10
4.0317564
20
5.722467
11
4.0629522
21
5.7705396
0
LINE
8
layer0
10
4.0629522
20
5.7705396
11
4.1316658
21
5.8457951
0
LINE
8
layer0
10
4.1316658
20
5.8457951
11
4.2279766
21
5.9328302
0
LINE
8
layer0
10
4.2279766
20
5.9328302
11
4.2926646
21
5.9845331
0
LINE
8
layer0
10
4.2926646
20
5.9845331
11
4.3699941
21
6.0412119
0
LINE
8
layer0
10
4.3699941
20
6.0412119
11
4.4596969
21
6.1013817
0
LINE
8
layer0
10
4.4596969
20
6.1013817
11
4.5621618
21
6.164056
0
LINE
8
layer0
10
4.5621618
20
6.164056
11
4.6805205
21
6.2297592
0
LINE
8
layer0
10
4.6805205
20
6.2297592
11
4.809216
21
6.2942865
0
LINE
8
layer0
10
4.809216
20
6.2942865
11
4.9529679
21
6.3590121
0
LINE
8
layer0
10
4.9529679
20
6.3590121
11
5.1104957
21
6.4221582
0
LINE
8
layer0
10
5.1104957
20
6.4221582
11
5.2826666
21
6.4829469
0
LINE
8
layer0
10
5.2826666
20
6.4829469
11
5.4396136
21
6.5314805
0
ARC
8
layer0
10
-0.0000142
20
-0.0000163
40
8.5
50
45.7885591
51
50.2114459
0
LINE
8
layer0
10
5.9271059
20
6.0925404
11
5.8952436
21
5.9313801
0
LINE
8
layer0
10
5.8952436
20
5.9313801
11
5.8527847
21
5.7537982
0
LINE
8
layer0
10
5.8527847
20
5.7537982
11
5.8064507
21
5.5905328
0
LINE
8
layer0
10
5.8064507
20
5.5905328
11
5.7571058
21
5.4408027
0
LINE
8
layer0
10
5.7571058
20
5.4408027
11
5.7063844
21
5.3060672
0
LINE
8
layer0
10
5.7063844
20
5.3060672
11
5.6534129
21
5.1814891
0
LINE
8
layer0
10
5.6534129
20
5.1814891
11
5.6017924
21
5.0730343
0
LINE
8
layer0
10
5.6017924
20
5.0730343
11
5.5513287
21
4.9775334
0
LINE
8
layer0
10
5.5513287
20
4.9775334
11
5.5030436
21
4.894703
0
LINE
8
layer0
10
5.5030436
20
4.894703
11
5.4583857
21
4.8249649
0
LINE
8
layer0
10
5.4583857
20
4.8249649
11
5.3818946
21
4.7200841
0
LINE
8
layer0
10
5.3818946
20
4.7200841
11
5.3142339
21
4.6438806
0
LINE
8
layer0
10
5.3142339
20
4.6438806
11
5.2696854
21
4.6078307
0
LINE
8
layer0
10
5.2696854
20
4.6078307
11
5.1831527
21
4.5305856
0
LINE
8
layer0
10
5.1831527
20
4.5305856
11
5.1121403
21
4.4546909
0
LINE
8
layer0
10
5.1121403
20
4.4546909
11
5.0563657
21
4.3813012
0
LINE
8
layer0
10
5.0563657
20
4.3813012
11
5.0154639
21
4.3115482
0
LINE
8
layer0
10
5.0154639
20
4.3115482
11
4.9890181
21
4.2465502
0
LINE
8
layer0
10
4.9890181
20
4.2465502
11
4.9765324
21
4.1873809
0
LINE
8
layer0
10
4.9765324
20
4.1873809
11
4.9753651
21
4.1603035
0
LINE
8
layer0
10
4.9753651
20
4.1603035
11
4.9774683
21
4.1350707
0
LINE
8
layer0
10
4.9774683
20
4.1350707
11
4.9827698
21
4.1118155
0
LINE
8
layer0
10
4.9827698
20
4.1118155
11
4.9911853
21
4.0906373
0
LINE
8
layer0
10
4.9911853
20
4.0906373
11
5.0059667
21
4.0672982
0
LINE
8
layer0
10
5.0059667
20
4.0672982
11
5.1683099
21
3.8589255
0
LINE
8
layer0
10
5.1683099
20
3.8589255
11
5.2181596
21
3.7912149
0
LINE
8
layer0
10
5.2181596
20
3.7912149
11
5.2671518
21
3.7228812
0
LINE
8
layer0
10
5.2671518
20
3.7228812
11
5.4151592
21
3.5040929
0
LINE
8
layer0
10
5.4151592
20
3.5040929
11
5.4327883
21
3.4828228
0
LINE
8
layer0
10
5.4327883
20
3.4828228
11
5.4503295
21
3.4682749
0
LINE
8
layer0
10
5.4503295
20
3.4682749
11
5.4708082
21
3.4560465
0
LINE
8
layer0
10
5.4708082
20
3.4560465
11
5.4941562
21
3.4462489
0
LINE
8
layer0
10
5.4941562
20
3.4462489
11
5.520269
21
3.4389917
0
LINE
8
layer0
10
5.520269
20
3.4389917
11
5.5804006
21
3.432582
0
LINE
8
layer0
10
5.5804006
20
3.432582
11
5.6503896
21
3.437648
0
LINE
8
layer0
10
5.6503896
20
3.437648
11
5.729368
21
3.454993
0
LINE
8
layer0
10
5.729368
20
3.454993
11
5.8164011
21
3.4853591
0
LINE
8
layer0
10
5.8164011
20
3.4853591
11
5.9105252
21
3.5294432
0
LINE
8
layer0
10
5.9105252
20
3.5294432
11
6.0107298
21
3.5878706
0
LINE
8
layer0
10
6.0107298
20
3.5878706
11
6.0587814
21
3.6190987
0
LINE
8
layer0
10
6.0587814
20
3.6190987
11
6.1521636
21
3.6598997
0
LINE
8
layer0
10
6.1521636
20
3.6598997
11
6.2755483
21
3.7002371
0
LINE
8
layer0
10
6.2755483
20
3.7002371
11
6.3556731
21
3.7211591
0
LINE
8
layer0
10
6.3556731
20
3.7211591
11
6.4493705
21
3.7414849
0
LINE
8
layer0
10
6.4493705
20
3.7414849
11
6.5557914
21
3.7599674
0
LINE
8
layer0
10
6.5557914
20
3.7599674
11
6.6748896
21
3.775547
0
LINE
8
layer0
10
6.6748896
20
3.775547
11
6.8097396
21
3.7874291
0
LINE
8
layer0
10
6.8097396
20
3.7874291
11
6.9535544
21
3.7940324
0
LINE
8
layer0
10
6.9535544
20
3.7940324
11
7.1112046
21
3.7946931
0
LINE
8
layer0
10
7.1112046
20
3.7946931
11
7.2807972
21
3.7883076
0
LINE
8
layer0
10
7.2807972
20
3.7883076
11
7.4628081
21
3.7738126
0
LINE
8
layer0
10
7.4628081
20
3.7738126
11
7.6259267
21
3.7543142
0
ARC
8
layer0
10
-0.0000197
20
-0.0000088
40
8.5
50
21.7885568
51
26.2114441
0
LINE
8
layer0
10
7.8927401
20
3.1550415
11
7.7980826
21
3.0207737
0
LINE
8
layer1
10
7.7980826
20
3.0207737
11
7.6870654
21
2.8758142
0
LINE
8
layer1
10
7.6870654
20
2.8758142
11
7.5783312
21
2.7455096
0
LINE
8
layer1
10
7.5783312
20
2.7455096
11
7.4723517
21
2.6287947
0
LINE
8
layer1
10
7.4723517
20
2.6287947
11
7.3712135
21
2.526338
0
LINE
8
layer1
10
7.3712135
20
2.526338
11
7.2721512
21
2.4340756
0
LINE
8
layer1
10
7.2721512
20
2.4340756
11
7.1808809
21
2.3559932
0
LINE
8
layer1
10
7.1808809
20
2.3559932
11
7.0959364
21
2.2892743
0
LINE
8
layer1
10
7.0959364
20
2.2892743
11
7.0181355
21
2.2332442
0
LINE
8
layer1
10
7.0181355
20
2.2332442
11
6.9489735
21
2.1876993
0
LINE
8
layer1
10
6.9489735
20
2.1876993
11
6.8364365
21
2.1229977
0
LINE
8
layer1
10
6.8364365
20
2.1229977
11
6.7436306
21
2.0809023
0
LINE
8
layer1
10
6.7436306
20
2.0809023
11
6.6882708
21
2.0660887
0
LINE
8
layer1
10
6.6882708
20
2.0660887
11
6.5778008
21
2.0307177
0
LINE
8
layer1
10
6.5778008
20
2.0307177
11
6.4820586
21
1.9902679
0
LINE
8
layer1
10
6.4820586
20
1.9902679
11
6.4012556
21
1.9459087
0
LINE
8
layer1
10
6.4012556
20
1.9459087
11
6.3355189
21
1.8988223
0
LINE
8
layer1
10
6.3355189
20
1.8988223
11
6.2849224
21
1.8502002
0
LINE
8
layer1
10
6.2849224
20
1.8502002
11
6.2494498
21
1.8012248
0
LINE
8
layer1
10
6.2494498
20
1.8012248
11
6.2373701
21
1.7769631
0
LINE
8
layer1
10
6.2373701
20
1.7769631
11
6.2290283
21
1.7530563
0
LINE
8
layer1
10
6.2290283
20
1.7530563
11
6.2244128
21
1.7296553
0
LINE
8
layer1
10
6.2244128
20
1.7296553
11
6.2234867
21
1.7068852
0
LINE
8
layer1
10
6.2234867
20
1.7068852
11
6.2274973
21
1.6795517
0
LINE
8
layer1
10
6.2274973
20
1.6795517
11
6.2910524
21
1.4231629
0
LINE
8
layer1
10
6.2910524
20
1.4231629
11
6.309052
21
1.3410304
0
LINE
8
layer1
10
6.309052
20
1.3410304
11
6.3260148
21
1.2586776
0
LINE
8
layer1
10
6.3260148
20
1.2586776
11
6.3722371
21
0.9986045
0
LINE
8
layer1
10
6.3722371
20
0.9986045
11
6.3796908
21
0.9720029
0
LINE
8
layer1
10
6.3796908
20
0.9720029
11
6.3897982
21
0.951578
0
LINE
8
layer1
10
6.3897982
20
0.951578
11
6.4035328
21
0.9320775
0
LINE
8
layer1
10
6.4035328
20
0.9320775
11
6.4208771
21
0.9136304
0
LINE
8
layer1
10
6.4208771
20
0.9136304
11
6.4417806
21
0.8963795
0
LINE
8
layer1
10
6.4417806
20
0.8963795
11
6.4941065
21
0.8660663
0
LINE
8
layer1
10
6.4941065
20
0.8660663
11
6.5601051
21
0.8422272
0
LINE
8
layer1
10
6.5601051
20
0.8422272
11
6.6393104
21
0.8259492
0
LINE
8
layer1
10
6.6393104
20
0.8259492
11
6.73117
21
0.8182906
0
LINE
8
layer1
10
6.73117
20
0.8182906
11
6.8350873
21
0.8202796
0
LINE
8
layer1
10
6.8350873
20
0.8202796
11
6.9503934
21
0.8328989
0
LINE
8
layer1
10
6.9503934
20
0.8328989
11
7.0069923
21
0.8418828
0
LINE
8
layer1
10
7.0069923
20
0.8418828
11
7.1088965
21
0.8411744
0
LINE
8
layer1
10
7.1088965
20
0.8411744
11
7.2380206
21
0.8278394
0
LINE
8
layer1
10
7.2380206
20
0.8278394
11
7.3197281
21
0.8143628
0
LINE
8
layer1
10
7.3197281
20
0.8143628
11
7.4135921
21
0.7948212
0
LINE
8
layer1
10
7.4135921
20
0.7948212
11
7.5183299
21
0.7684205
0
LINE
8
layer1
10
7.5183299
20
0.7684205
11
7.6334684
21
0.7342116
0
LINE
8
layer1
10
7.6334684
20
0.7342116
11
7.7614928
21
0.690218
0
LINE
8
layer1
10
7.7614928
20
0.690218
11
7.8955601
21
0.6377557
0
LINE
8
layer1
10
7.8955601
20
0.6377557
11
8.0398494
21
0.5742371
0
LINE
8
layer1
10
8.0398494
20
0.5742371
11
8.1921827
21
0.4994242
0
LINE
8
layer1
10
8.1921827
20
0.4994242
11
8.3525623
21
0.4121519
0
LINE
8
layer1
10
8.3525623
20
0.4121519
11
8.4936479
21
0.3279928
0
ARC
8
layer1
10
-0.0000215
20
0
40
8.5
50
357.7885565
51
362.2114435
0
LINE
8
layer1
10
8.4936479
20
-0.3279928
11
8.3525623
21
-0.4121519
0
LINE
8
layer1
10
8.3525623
20
-0.4121519
11
8.1921827
21
-0.4994242
0
LINE
8
layer1
10
8.1921827
20
-0.4994242
11
8.0398494
21
-0.5742371
0
LINE
8
layer1
10
8.0398494
20
-0.5742371
11
7.8955601
21
-0.6377557
0
LINE
8
layer1
10
7.8955601
20
-0.6377557
11
7.7614928
21
-0.690218
0
LINE
8
layer1
10
7.7614928
20
-0.690218
11
7.6334684
21
-0.7342116
0
LINE
8
layer1
10
7.6334684
20
-0.7342116
11
7.5183299
21
-0.7684205
0
LINE
8
layer1
10
7.5183299
20
-0.7684205
11
7.4135921
21
-0.7948212
0
LINE
8
layer1
10
7.4135921
20
-0.7948212
11
7.3197281
21
-0.8143628
0
LINE
8
layer1
10
7.3197281
20
-0.8143628
11
7.2380206
21
-0.8278394
0
LINE
8
layer1
10
7.2380206
20
-0.8278394
11
7.1088965
21
-0.8411744
0
LINE
8
layer1
10
7.1088965
20
-0.8411744
11
7.0069923
21
-0.8418828
0
LINE
8
layer1
10
7.0069923
20
-0.8418828
11
6.9503934
21
-0.8328989
0
LINE
8
layer1
10
6.9503934
20
-0.8328989
11
6.8350873
21
-0.8202796
0
LINE
8
layer1
10
6.8350873
20
-0.8202796
11
6.73117
21
-0.8182906
0
LINE
8
layer1
10
6.73117
20
-0.8182906
11
6.6393104
21
-0.8259492
0
LINE
8
layer1
10
6.6393104
20
-0.8259492
11
6.5601051
21
-0.8422272
0
LINE
8
layer1
10
6.5601051
20
-0.8422272
11
6.4941065
21
-0.8660663
0
LINE
8
layer1
10
6.4941065
20
-0.8660663
11
6.4417806
21
-0.8963795
0
LINE
8
layer1
10
6.4417806
20
-0.8963795
11
6.4208771
21
-0.9136304
0
LINE
8
layer1
10
6.4208771
20
-0.9136304
11
6.4035328
21
-0.9320775
0
LINE
8
layer1
10
6.4035328
20
-0.9320775
11
6.3897982
21
-0.951578
0
LINE
8
layer1
10
6.3897982
20
-0.951578
11
6.3796908
21
-0.9720029
0
LINE
8
layer1
10
6.3796908
20
-0.9720029
11
6.3722371
21
-0.9986045
0
LINE
8
layer1
10
6.3722371
20
-0.9986045
11
6.3260148
21
-1.2586776
0
LINE
8
layer1
10
6.3260148
20
-1.2586776
11
6.309052
21
-1.3410304
0
LINE
8
layer1
10
6.309052
20
-1.3410304
11
6.2910524
21
-1.4231629
0
LINE
8
layer1
10
6.2910524
20
-1.4231629
11
6.2274973
21
-1.6795517
0
LINE
8
layer1
10
6.2274973
20
-1.6795517
11
6.2234867
21
-1.7068852
0
LINE
8
layer1
10
6.2234867
20
-1.7068852
11
6.2244128
21
-1.7296553
0
LINE
8
layer1
10
6.2244128
20
-1.7296553
11
6.2290283
21
-1.7530563
0
LINE
8
layer1
10
6.2290283
20
-1.7530563
11
6.2373701
21
-1.7769631
0
LINE
8
layer1
10
6.2373701
20
-1.7769631
11
6.2494498
21
-1.8012248
0
LINE
8
layer1
10
6.2494498
20
-1.8012248
11
6.2849224
21
-1.8502002
0
LINE
8
layer1
10
6.2849224
20
-1.8502002
11
6.3355189
21
-1.8988223
0
LINE
8
layer1
10
6.3355189
20
-1.8988223
11
6.4012556
21
-1.9459087
0
LINE
8
layer1
10
6.4012556
20
-1.9459087
11
6.4820586
21
-1.9902679
0
LINE
8
layer1
10
6.4820586
20
-1.9902679
11
6.5778008
21
-2.0307177
0
LINE
8
layer1
10
6.5778008
20
-2.0307177
11
6.6882708
21
-2.0660887
0
LINE
8
layer1
10
6.6882708
20
-2.0660887
11
6.7436306
21
-2.0809023
0
LINE
8
layer1
10
6.7436306
20
-2.0809023
11
6.8364365
21
-2.1229977
0
LINE
8
layer1
10
6.8364365
20
-2.1229977
11
6.9489735
21
-2.1876993
0
LINE
8
layer1
10
6.9489735
20
-2.1876993
11
7.0181355
21
-2.2332442
0
LINE
8
layer1
10
7.0181355
20
-2.2332442
11
7.0959364
21
-2.2892743
0
LINE
8
layer1
10
7.0959364
20
-2.2892743
11
7.1808809
21
-2.3559932
0
LINE
8
layer1
10
7.1808809
20
-2.3559932
11
7.2721512
21
-2.4340756
0
LINE
8
layer1
10
7.2721512
20
-2.4340756
11
7.3712135
21
-2.526338
0
LINE
8
layer1
10
7.3712135
20
-2.526338
11
7.4723517
21
-2.6287947
0
LINE
8
layer1
10
7.4723517
20
-2.6287947
11
7.5783312
21
-2.7455096
0
LINE
8
layer1
10
7.5783312
20
-2.7455096
11
7.6870654
21
-2.8758142
0
LINE
8
layer1
10
7.6870654
20
-2.8758142
11
7.7980826
21
-3.0207737
0
LINE
8
layer1
10
7.7980826
20
-3.0207737
11
7.8927401
21
-3.1550415
0
ARC
8
layer1
10
-0.0000197
20
0.0000088
40
8.5
50
333.7885559
51
338.2114432
0
LINE
8
layer1
10
7.6259267
20
-3.7543142
11
7.4628081
21
-3.7738126
0
LINE
8
layer1
10
7.4628081
20
-3.7738126
11
7.2807972
21
-3.7883076
0
LINE
8
layer1
10
7.2807972
20
-3.7883076
11
7.1112046
21
-3.7946931
0
LINE
8
layer1
10
7.1112046
20
-3.7946931
11
6.9535544
21
-3.7940324
0
LINE
8
layer1
10
6.9535544
20
-3.7940324
11
6.8097396
21
-3.7874291
0
LINE
8
layer1
10
6.8097396
20
-3.7874291
11
6.6748896
21
-3.775547
0
LINE
8
layer1
10
6.6748896
20
-3.775547
11
6.5557914
21
-3.7599674
0
LINE
8
layer1
10
6.5557914
20
-3.7599674
11
6.4493705
21
-3.7414849
0
LINE
8
layer1
10
6.4493705
20
-3.7414849
11
6.3556731
21
-3.7211591
0
LINE
8
layer1
10
6.3556731
20
-3.7211591
11
6.2755483
21
-3.7002371
0
LINE
8
layer1
10
6.2755483
20
-3.7002371
11
6.1521636
21
-3.6598997
0
LINE
8
layer1
10
6.1521636
20
-3.6598997
11
6.0587814
21
-3.6190987
0
LINE
8
layer1
10
6.0587814
20
-3.6190987
11
6.0107298
21
-3.5878706
0
LINE
8
layer1
10
6.0107298
20
-3.5878706
11
5.9105252
21
-3.5294432
0
LINE
8
layer1
10
5.9105252
20
-3.5294432
11
5.8164011
21
-3.4853591
0
LINE
8
layer1
10
5.8164011
20
-3.4853591
11
5.729368
21
-3.454993
0
LINE
8
layer1
10
5.729368
20
-3.454993
11
5.6503896
21
-3.437648
0
LINE
8
layer1
10
5.6503896
20
-3.437648
11
5.5804006
21
-3.432582
0
LINE
8
layer1
10
5.5804006
20
-3.432582
11
5.520269
21
-3.4389917
0
LINE
8
layer1
10
5.520269
20
-3.4389917
11
5.4941562
21
-3.4462489
0
LINE
8
layer1
10
5.4941562
20
-3.4462489
11
5.4708082
21
-3.4560465
0
LINE
8
layer1
10
5.4708082
20
-3.4560465
11
5.4503295
21
-3.4682749
0
LINE
8
layer1
10
5.4503295
20
-3.4682749
11
5.4327883
21
-3.4828228
0
LINE
8
layer1
10
5.4327883
20
-3.4828228
11
5.4151592
21
-3.5040929
0
LINE
8
layer1
10
5.4151592
20
-3.5040929
11
5.2671518
21
-3.7228812
0
LINE
8
layer1
10
5.2671518
20
-3.7228812
11
5.2181596
21
-3.7912149
0
LINE
8
layer1
10
5.2181596
20
-3.7912149
11
5.1683099
21
-3.8589255
0
LINE
8
layer1
10
5.1683099
20
-3.8589255
11
5.0059667
21
-4.0672982
0
LINE
8
layer1
10
5.0059667
20
-4.0672982
11
4.9911853
21
-4.0906373
0
LINE
8
layer1
10
4.9911853
20
-4.0906373
11
4.9827698
21
-4.1118155
0
LINE
8
layer1
10
4.9827698
20
-4.1118155
11
4.9774683
21
-4.1350707
0
LINE
8
layer1
10
4.9774683
20
-4.1350707
11
4.9753651
21
-4.1603035
0
LINE
8
layer1
10
4.9753651
20
-4.1603035
11
4.9765324
21
-4.1873809
0
LINE
8
layer1
10
4.9765324
20
-4.1873809
11
4.9890181
21
-4.2465502
0
LINE
8
layer1
10
4.9890181
20
-4.2465502
11
5.0154639
21
-4.3115482
0
LINE
8
layer1
10
5.0154639
20
-4.3115482
11
5.0563657
21
-4.3813012
0
LINE
8
layer1
10
5.0563657
20
-4.3813012
11
5.1121403
21
-4.4546909
0
LINE
8
layer1
10
5.1121403
20
-4.4546909
11
5.1831527
21
-4.5305856
0
LINE
8
layer1
10
5.1831527
20
-4.5305856
11
5.2696854
21
-4.6078307
0
LINE
8
layer1
10
5.2696854
20
-4.6078307
11
5.3142339
21
-4.6438806
0
LINE
8
layer1
10
5.3142339
20
-4.6438806
11
5.3818946
21
-4.7200841
0
LINE
8
layer1
10
5.3818946
20
-4.7200841
11
5.4583857
21
-4.8249649
0
LINE
8
layer1
10
5.4583857
20
-4.8249649
11
5.5030436
21
-4.894703
0
LINE
8
layer1
10
5.5030436
20
-4.894703
11
5.5513287
21
-4.9775334
0
LINE
8
layer1
10
5.5513287
20
-4.9775334
11
5.6017924
21
-5.0730343
0
LINE
8
layer1
10
5.6017924
20
-5.0730343
11
5.6534129
21
-5.1814891
0
LINE
8
layer1
10
5.6534129
20
-5.1814891
11
5.7063844
21
-5.3060672
0
LINE
8
layer1
10
5.7063844
20
-5.3060672
11
5.7571058
21
-5.4408027
0
LINE
8
layer1
10
5.7571058
20
-5.4408027
11
5.8064507
21
-5.5905328
0
LINE
8
layer1
10
5.8064507
20
-5.5905328
11
5.8527847
21
-5.7537982
0
LINE
8
layer1
10
5.8527847
20
-5.7537982
11
5.8952436
21
-5.9313801
0
LINE
8
layer1
10
5.8952436
20
-5.9313801
11
5.9271059
21
-6.0925404
0
ARC
8
layer1
10
-0.0000142
20
0.0000163
40
8.5
50
309.7885545
51
314.2114413
0
LINE
8
layer1
10
5.4396136
20
-6.5314805
11
5.2826666
21
-6.4829469
0
LINE
8
layer1
10
5.2826666
20
-6.4829469
11
5.1104957
21
-6.4221582
0
LINE
8
layer1
10
5.1104957
20
-6.4221582
11
4.9529679
21
-6.3590121
0
LINE
8
layer1
10
4.9529679
20
-6.3590121
11
4.809216
21
-6.2942865
0
LINE
8
layer1
10
4.809216
20
-6.2942865
11
4.6805205
21
-6.2297592
0
LINE
8
layer1
10
4.6805205
20
-6.2297592
11
4.5621618
21
-6.164056
0
LINE
8
layer1
10
4.5621618
20
-6.164056
11
4.4596969
21
-6.1013817
0
LINE
8
layer1
10
4.4596969
20
-6.1013817
11
4.3699941
21
-6.0412119
0
LINE
8
layer1
10
4.3699941
20
-6.0412119
11
4.2926646
21
-5.9845331
0
LINE
8
layer1
10
4.2926646
20
-5.9845331
11
4.2279766
21
-5.9328302
0
LINE
8
layer1
10
4.2279766
20
-5.9328302
11
4.1316658
21
-5.8457951
0
LINE
8
layer1
10
4.1316658
20
-5.8457951
11
4.0629522
21
-5.7705396
0
LINE
8
layer1
10
4.0629522
20
-5.7705396
11
4.0317564
21
-5.722467
0
LINE
8
layer1
10
4.0317564
20
-5.722467
11
3.9639796
21
-5.628334
0
LINE
8
layer1
10
3.9639796
20
-5.628334
11
3.8959235
21
-5.5497774
0
LINE
8
layer1
10
3.8959235
20
-5.5497774
11
3.8287659
21
-5.486637
0
LINE
8
layer1
10
3.8287659
20
-5.486637
11
3.7636703
21
-5.4386682
0
LINE
8
layer1
10
3.7636703
20
-5.4386682
11
3.7017927
21
-5.4055731
0
LINE
8
layer1
10
3.7017927
20
-5.4055731
11
3.6442527
21
-5.3869709
0
LINE
8
layer1
10
3.6442527
20
-5.3869709
11
3.6174457
21
-5.3829797
0
LINE
8
layer1
10
3.6174457
20
-5.3829797
11
3.5921312
21
-5.3824338
0
LINE
8
layer1
10
3.5921312
20
-5.3824338
11
3.5684493
21
-5.3852755
0
LINE
8
layer1
10
3.5684493
20
-5.3852755
11
3.5465074
21
-5.3914311
0
LINE
8
layer1
10
3.5465074
20
-5.3914311
11
3.5217511
21
-5.4036919
0
LINE
8
layer1
10
3.5217511
20
-5.4036919
11
3.2975504
21
-5.5433649
0
LINE
8
layer1
10
3.2975504
20
-5.5433649
11
3.225
21
-5.5858639
0
LINE
8
layer1
10
3.225
20
-5.5858639
11
3.1519196
21
-5.6274449
0
LINE
8
layer1
10
3.1519196
20
-5.6274449
11
2.9188589
21
-5.7517719
0
LINE
8
layer1
10
2.9188589
20
-5.7517719
11
2.8958626
21
-5.7670811
0
LINE
8
layer1
10
2.8958626
20
-5.7670811
11
2.8795607
21
-5.7830055
0
LINE
8
layer1
10
2.8795607
20
-5.7830055
11
2.8652588
21
-5.8020938
0
LINE
8
layer1
10
2.8652588
20
-5.8020938
11
2.8530743
21
-5.8242897
0
LINE
8
layer1
10
2.8530743
20
-5.8242897
11
2.8431273
21
-5.8495009
0
LINE
8
layer1
10
2.8431273
20
-5.8495009
11
2.8304673
21
-5.9086331
0
LINE
8
layer1
10
2.8304673
20
-5.9086331
11
2.8281897
21
-5.9787682
0
LINE
8
layer1
10
2.8281897
20
-5.9787682
11
2.8371841
21
-6.059127
0
LINE
8
layer1
10
2.8371841
20
-6.059127
11
2.8582865
21
-6.1488574
0
LINE
8
layer1
10
2.8582865
20
-6.1488574
11
2.8922904
21
-6.247074
0
LINE
8
layer1
10
2.8922904
20
-6.247074
11
2.9399236
21
-6.352837
0
LINE
8
layer1
10
2.9399236
20
-6.352837
11
2.9659578
21
-6.4038896
0
LINE
8
layer1
10
2.9659578
20
-6.4038896
11
2.9967742
21
-6.5010251
0
LINE
8
layer1
10
2.9967742
20
-6.5010251
11
3.0239934
21
-6.6279502
0
LINE
8
layer1
10
3.0239934
20
-6.6279502
11
3.0364254
21
-6.7098231
0
LINE
8
layer1
10
3.0364254
20
-6.7098231
11
3.0468459
21
-6.8051319
0
LINE
8
layer1
10
3.0468459
20
-6.8051319
11
3.0541031
21
-6.9129017
0
LINE
8
layer1
10
3.0541031
20
-6.9129017
11
3.0571482
21
-7.032976
0
LINE
8
layer1
10
3.0571482
20
-7.032976
11
3.0548695
21
-7.1683292
0
LINE
8
layer1
10
3.0548695
20
-7.1683292
11
3.046404
21
-7.3120465
0
LINE
8
layer1
10
3.046404
20
-7.3120465
11
3.0305821
21
-7.4689021
0
LINE
8
layer1
10
3.0305821
20
-7.4689021
11
3.0065043
21
-7.6368982
0
LINE
8
layer1
10
3.0065043
20
-7.6368982
11
2.9730634
21
-7.8163969
0
LINE
8
layer1
10
2.9730634
20
-7.8163969
11
2.9366212
21
-7.9765838
0
ARC
8
layer1
10
-0.0000066
20
0.0000206
40
8.5
50
285.7885556
51
290.2114428
0
LINE
8
layer1
10
2.3127418
20
-8.1792945
11
2.189104
21
-8.0711208
0
LINE
8
layer1
10
2.189104
20
-8.0711208
11
2.0565431
21
-7.9455593
0
LINE
8
layer1
10
2.0565431
20
-7.9455593
11
1.9383181
21
-7.8238002
0
LINE
8
layer1
10
1.9383181
20
-7.8238002
11
1.8333205
21
-7.7062012
0
LINE
8
layer1
10
1.8333205
20
-7.7062012
11
1.7419968
21
-7.5949074
0
LINE
8
layer1
10
1.7419968
20
-7.5949074
11
1.6605947
21
-7.4867438
0
LINE
8
layer1
10
1.6605947
20
-7.4867438
11
1.5924804
21
-7.3878117
0
LINE
8
layer1
10
1.5924804
20
-7.3878117
11
1.5350061
21
-7.2963584
0
LINE
8
layer1
10
1.5350061
20
-7.2963584
11
1.4874153
21
-7.213127
0
LINE
8
layer1
10
1.4874153
20
-7.213127
11
1.4493493
21
-7.1395831
0
LINE
8
layer1
10
1.4493493
20
-7.1395831
11
1.3967655
21
-7.0208995
0
LINE
8
layer1
10
1.3967655
20
-7.0208995
11
1.3646016
21
-6.9242018
0
LINE
8
layer1
10
1.3646016
20
-6.9242018
11
1.3556558
21
-6.8675968
0
LINE
8
layer1
10
1.3556558
20
-6.8675968
11
1.3320258
21
-6.7540347
0
LINE
8
layer1
10
1.3320258
20
-6.7540347
11
1.3018054
21
-6.6545888
0
LINE
8
layer1
10
1.3018054
20
-6.6545888
11
1.2661353
21
-6.5695917
0
LINE
8
layer1
10
1.2661353
20
-6.5695917
11
1.2261783
21
-6.4992933
0
LINE
8
layer1
10
1.2261783
20
-6.4992933
11
1.1831113
21
-6.4438915
0
LINE
8
layer1
10
1.1831113
20
-6.4438915
11
1.1381121
21
-6.4034939
0
LINE
8
layer1
10
1.1381121
20
-6.4034939
11
1.115246
21
-6.3889444
0
LINE
8
layer1
10
1.115246
20
-6.3889444
11
1.0923421
21
-6.3781493
0
LINE
8
layer1
10
1.0923421
20
-6.3781493
11
1.0695518
21
-6.371113
0
LINE
8
layer1
10
1.0695518
20
-6.371113
11
1.0470032
21
-6.3678119
0
LINE
8
layer1
10
1.0470032
20
-6.3678119
11
1.0194002
21
-6.3689434
0
LINE
8
layer1
10
1.0194002
20
-6.3689434
11
0.7577726
21
-6.4053504
0
LINE
8
layer1
10
0.7577726
20
-6.4053504
11
0.6742086
21
-6.4146662
0
LINE
8
layer1
10
0.6742086
20
-6.4146662
11
0.5905338
21
-6.4229279
0
LINE
8
layer1
10
0.5905338
20
-6.4229279
11
0.3270539
21
-6.4417119
0
LINE
8
layer1
10
0.3270539
20
-6.4417119
11
0.2998189
21
-6.4463441
0
LINE
8
layer1
10
0.2998189
20
-6.4463441
11
0.2784494
21
-6.4542612
0
LINE
8
layer1
10
0.2784494
20
-6.4542612
11
0.25762
21
-6.4658822
0
LINE
8
layer1
10
0.25762
20
-6.4658822
11
0.2374611
21
-6.4812033
0
LINE
8
layer1
10
0.2374611
20
-6.4812033
11
0.2181196
21
-6.500189
0
LINE
8
layer1
10
0.2181196
20
-6.500189
11
0.1825029
21
-6.5490597
0
LINE
8
layer1
10
0.1825029
20
-6.5490597
11
0.1518957
21
-6.6122049
0
LINE
8
layer1
10
0.1518957
20
-6.6122049
11
0.1274277
21
-6.6892747
0
LINE
8
layer1
10
0.1274277
20
-6.6892747
11
0.110209
21
-6.7798306
0
LINE
8
layer1
10
0.110209
20
-6.7798306
11
0.1013249
21
-6.8833866
0
LINE
8
layer1
10
0.1013249
20
-6.8833866
11
0.1018222
21
-6.99938
0
LINE
8
layer1
10
0.1018222
20
-6.99938
11
0.1048407
21
-7.056608
0
LINE
8
layer1
10
0.1048407
20
-7.056608
11
0.0934843
21
-7.1578798
0
LINE
8
layer1
10
0.0934843
20
-7.1578798
11
0.0667252
21
-7.2849028
0
LINE
8
layer1
10
0.0667252
20
-7.2849028
11
0.0447817
21
-7.3647539
0
LINE
8
layer1
10
0.0447817
20
-7.3647539
11
0.0155357
21
-7.4560612
0
LINE
8
layer1
10
0.0155357
20
-7.4560612
11
-0.0216684
21
-7.5574656
0
LINE
8
layer1
10
-0.0216684
20
-7.5574656
11
-0.0677252
21
-7.6683975
0
LINE
8
layer1
10
-0.0677252
20
-7.6683975
11
-0.12486
21
-7.791122
0
LINE
8
layer1
10
-0.12486
20
-7.791122
11
-0.1910487
21
-7.918971
0
LINE
8
layer1
10
-0.1910487
20
-7.918971
11
-0.2693017
21
-8.0558304
0
LINE
8
layer1
10
-0.2693017
20
-8.0558304
11
-0.359628
21
-8.1995091
0
LINE
8
layer1
10
-0.359628
20
-8.1995091
11
-0.4631865
21
-8.3498877
0
LINE
8
layer1
10
-0.4631865
20
-8.3498877
11
-0.5616319
21
-8.4814034
0
ARC
8
layer1
10
0.0000028
20
0.0000214
40
8.5
50
261.7885533
51
266.2114401
0
LINE
8
layer1
10
-1.214024
20
-8.4128342
11
-1.2829746
21
-8.2637245
0
LINE
8
layer1
10
-1.2829746
20
-8.2637245
11
-1.3530046
21
-8.095101
0
LINE
8
layer1
10
-1.3530046
20
-8.095101
11
-1.4114845
21
-7.9357821
0
LINE
8
layer1
10
-1.4114845
20
-7.9357821
11
-1.4595728
21
-7.7856437
0
LINE
8
layer1
10
-1.4595728
20
-7.7856437
11
-1.4977339
21
-7.6468271
0
LINE
8
layer1
10
-1.4977339
20
-7.6468271
11
-1.5281042
21
-7.5149055
0
LINE
8
layer1
10
-1.5281042
20
-7.5149055
11
-1.5500905
21
-7.3968219
0
LINE
8
layer1
10
-1.5500905
20
-7.3968219
11
-1.5653985
21
-7.2898983
0
LINE
8
layer1
10
-1.5653985
20
-7.2898983
11
-1.5750216
21
-7.1945057
0
LINE
8
layer1
10
-1.5750216
20
-7.1945057
11
-1.5798836
21
-7.1118372
0
LINE
8
layer1
10
-1.5798836
20
-7.1118372
11
-1.5796483
21
-6.9820265
0
LINE
8
layer1
10
-1.5796483
20
-6.9820265
11
-1.569701
21
-6.8806066
0
LINE
8
layer1
10
-1.569701
20
-6.8806066
11
-1.5548501
21
-6.8252567
0
LINE
8
layer1
10
-1.5548501
20
-6.8252567
11
-1.5302472
21
-6.7119014
0
LINE
8
layer1
10
-1.5302472
20
-6.7119014
11
-1.5174067
21
-6.6087613
0
LINE
8
layer1
10
-1.5174067
20
-6.6087613
11
-1.5154215
21
-6.5166043
0
LINE
8
layer1
10
-1.5154215
20
-6.5166043
11
-1.5233311
21
-6.4361315
0
LINE
8
layer1
10
-1.5233311
20
-6.4361315
11
-1.5401409
21
-6.3680025
0
LINE
8
layer1
10
-1.5401409
20
-6.3680025
11
-1.5648185
21
-6.3127947
0
LINE
8
layer1
10
-1.5648185
20
-6.3127947
11
-1.5797899
21
-6.2902025
0
LINE
8
layer1
10
-1.5797899
20
-6.2902025
11
-1.5963229
21
-6.2710249
0
LINE
8
layer1
10
-1.5963229
20
-6.2710249
11
-1.614281
21
-6.2553273
0
LINE
8
layer1
10
-1.614281
20
-6.2553273
11
-1.6335374
21
-6.2431402
0
LINE
8
layer1
10
-1.6335374
20
-6.2431402
11
-1.6592142
21
-6.2329467
0
LINE
8
layer1
10
-1.6592142
20
-6.2329467
11
-1.913031
21
-6.1597926
0
LINE
8
layer1
10
-1.913031
20
-6.1597926
11
-1.9931596
21
-6.1343145
0
LINE
8
layer1
10
-1.9931596
20
-6.1343145
11
-2.0729607
21
-6.1078283
0
LINE
8
layer1
10
-2.0729607
20
-6.1078283
11
-2.3213017
21
-6.0178215
0
LINE
8
layer1
10
-2.3213017
20
-6.0178215
11
-2.3480662
21
-6.0109757
0
LINE
8
layer1
10
-2.3480662
20
-6.0109757
11
-2.3708084
21
-6.0095166
0
LINE
8
layer1
10
-2.3708084
20
-6.0095166
11
-2.3945636
21
-6.0116608
0
LINE
8
layer1
10
-2.3945636
20
-6.0116608
11
-2.4192114
21
-6.0174579
0
LINE
8
layer1
10
-2.4192114
20
-6.0174579
11
-2.4446028
21
-6.0269354
0
LINE
8
layer1
10
-2.4446028
20
-6.0269354
11
-2.4970178
21
-6.0570943
0
LINE
8
layer1
10
-2.4970178
20
-6.0570943
11
-2.5506624
21
-6.1023313
0
LINE
8
layer1
10
-2.5506624
20
-6.1023313
11
-2.6043622
21
-6.162786
0
LINE
8
layer1
10
-2.6043622
20
-6.162786
11
-2.6569246
21
-6.2385095
0
LINE
8
layer1
10
-2.6569246
20
-6.2385095
11
-2.7071607
21
-6.3294991
0
LINE
8
layer1
10
-2.7071607
20
-6.3294991
11
-2.7538851
21
-6.4356667
0
LINE
8
layer1
10
-2.7538851
20
-6.4356667
11
-2.7744043
21
-6.4891747
0
LINE
8
layer1
10
-2.7744043
20
-6.4891747
11
-2.8259699
21
-6.5770721
0
LINE
8
layer1
10
-2.8259699
20
-6.5770721
11
-2.9020804
21
-6.6822294
0
LINE
8
layer1
10
-2.9020804
20
-6.6822294
11
-2.9546051
21
-6.7462519
0
LINE
8
layer1
10
-2.9546051
20
-6.7462519
11
-3.0184607
21
-6.8177697
0
LINE
8
layer1
10
-3.0184607
20
-6.8177697
11
-3.0936933
21
-6.895275
0
LINE
8
layer1
10
-3.0936933
20
-6.895275
11
-3.1808883
21
-6.9778834
0
LINE
8
layer1
10
-3.1808883
20
-6.9778834
11
-3.2830001
21
-7.066759
0
LINE
8
layer1
10
-3.2830001
20
-7.066759
11
-3.3954674
21
-7.1566335
0
LINE
8
layer1
10
-3.3954674
20
-7.1566335
11
-3.5226207
21
-7.2498324
0
LINE
8
layer1
10
-3.5226207
20
-7.2498324
11
-3.6635773
21
-7.3443504
0
LINE
8
layer1
10
-3.6635773
20
-7.3443504
11
-3.8193472
21
-7.4396071
0
LINE
8
layer1
10
-3.8193472
20
-7.4396071
11
-3.9627738
21
-7.5197112
0
ARC
8
layer1
10
0.0000108
20
0.0000187
40
8.5
50
237.7885566
51
242.2114436
0
LINE
8
layer1
10
-4.530874
20
-7.1917184
11
-4.5332152
21
-7.0274552
0
LINE
8
layer1
10
-4.5332152
20
-7.0274552
11
-4.5286054
21
-6.8449263
0
LINE
8
layer1
10
-4.5286054
20
-6.8449263
11
-4.5172286
21
-6.6755952
0
LINE
8
layer1
10
-4.5172286
20
-6.6755952
11
-4.5000927
21
-6.5188777
0
LINE
8
layer1
10
-4.5000927
20
-6.5188777
11
-4.4784928
21
-6.376541
0
LINE
8
layer1
10
-4.4784928
20
-6.376541
11
-4.4525801
21
-6.2436718
0
LINE
8
layer1
10
-4.4525801
20
-6.2436718
11
-4.4246367
21
-6.1268545
0
LINE
8
layer1
10
-4.4246367
20
-6.1268545
11
-4.3951315
21
-6.0229485
0
LINE
8
layer1
10
-4.3951315
20
-6.0229485
11
-4.3651229
21
-5.931889
0
LINE
8
layer1
10
-4.3651229
20
-5.931889
11
-4.3359403
21
-5.85439
0
LINE
8
layer1
10
-4.3359403
20
-5.85439
11
-4.2829266
21
-5.7358977
0
LINE
8
layer1
10
-4.2829266
20
-5.7358977
11
-4.232588
21
-5.647292
0
LINE
8
layer1
10
-4.232588
20
-5.647292
11
-4.1965083
21
-5.6027678
0
LINE
8
layer1
10
-4.1965083
20
-5.6027678
11
-4.1279267
21
-5.5092194
0
LINE
8
layer1
10
-4.1279267
20
-5.5092194
11
-4.0742454
21
-5.420219
0
LINE
8
layer1
10
-4.0742454
20
-5.420219
11
-4.0349482
21
-5.3368368
0
LINE
8
layer1
10
-4.0349482
20
-5.3368368
11
-4.0094428
21
-5.2601041
0
LINE
8
layer1
10
-4.0094428
20
-5.2601041
11
-3.9970887
21
-5.1910281
0
LINE
8
layer1
10
-3.9970887
20
-5.1910281
11
-3.9971777
21
-5.1305559
0
LINE
8
layer1
10
-3.9971777
20
-5.1305559
11
-4.0016657
21
-5.1038275
0
LINE
8
layer1
10
-4.0016657
20
-5.1038275
11
-4.0089691
21
-5.0795833
0
LINE
8
layer1
10
-4.0089691
20
-5.0795833
11
-4.0189898
21
-5.0579386
0
LINE
8
layer1
10
-4.0189898
20
-5.0579386
11
-4.0316246
21
-5.0389728
0
LINE
8
layer1
10
-4.0316246
20
-5.0389728
11
-4.0509354
21
-5.019217
0
LINE
8
layer1
10
-4.0509354
20
-5.019217
11
-4.2530542
21
-4.8491508
0
LINE
8
layer1
10
-4.2530542
20
-4.8491508
11
-4.3158924
21
-4.7932841
0
LINE
8
layer1
10
-4.3158924
20
-4.7932841
11
-4.3780214
21
-4.7366298
0
LINE
8
layer1
10
-4.3780214
20
-4.7366298
11
-4.5682831
21
-4.553395
0
LINE
8
layer1
10
-4.5682831
20
-4.553395
11
-4.5899493
21
-4.536255
0
LINE
8
layer1
10
-4.5899493
20
-4.536255
11
-4.6101318
21
-4.525672
0
LINE
8
layer1
10
-4.6101318
20
-4.525672
11
-4.6327054
21
-4.5179686
0
LINE
8
layer1
10
-4.6327054
20
-4.5179686
11
-4.6575802
21
-4.5132394
0
LINE
8
layer1
10
-4.6575802
20
-4.5132394
11
-4.6846313
21
-4.5115699
0
LINE
8
layer1
10
-4.6846313
20
-4.5115699
11
-4.7447815
21
-4.5178024
0
LINE
8
layer1
10
-4.7447815
20
-4.5178024
11
-4.8121878
21
-4.5373092
0
LINE
8
layer1
10
-4.8121878
20
-4.5373092
11
-4.8858341
21
-4.5706957
0
LINE
8
layer1
10
-4.8858341
20
-4.5706957
11
-4.9646518
21
-4.6184934
0
LINE
8
layer1
10
-4.9646518
20
-4.6184934
11
-5.0475535
21
-4.6811837
0
LINE
8
layer1
10
-5.0475535
20
-4.6811837
11
-5.1334207
21
-4.7591681
0
LINE
8
layer1
10
-5.1334207
20
-4.7591681
11
-5.1739296
21
-4.7997042
0
LINE
8
layer1
10
-5.1739296
20
-4.7997042
11
-5.2567882
21
-4.8590289
0
LINE
8
layer1
10
-5.2567882
20
-4.8590289
11
-5.3690899
21
-4.9241379
0
LINE
8
layer1
10
-5.3690899
20
-4.9241379
11
-5.4431139
21
-4.9612616
0
LINE
8
layer1
10
-5.4431139
20
-4.9612616
11
-5.5305378
21
-5.000624
0
LINE
8
layer1
10
-5.5305378
20
-5.000624
11
-5.6307904
21
-5.0408287
0
LINE
8
layer1
10
-5.6307904
20
-5.0408287
11
-5.7440469
21
-5.0808298
0
LINE
8
layer1
10
-5.7440469
20
-5.0808298
11
-5.8734796
21
-5.1204891
0
LINE
8
layer1
10
-5.8734796
20
-5.1204891
11
-6.0127789
21
-5.156849
0
LINE
8
layer1
10
-6.0127789
20
-5.156849
11
-6.1668467
21
-5.1902725
0
LINE
8
layer1
10
-6.1668467
20
-5.1902725
11
-6.3340609
21
-5.2192868
0
LINE
8
layer1
10
-6.3340609
20
-5.2192868
11
-6.5151081
21
-5.2429508
0
LINE
8
layer1
10
-6.5151081
20
-5.2429508
11
-6.6787161
21
-5.2577927
0
ARC
8
layer1
10
0.0000173
20
0.000013
40
8.5
50
213.7885588
51
218.211446
0
LINE
8
layer1
10
-7.0642948
20
-4.7270892
11
-6.9996217
21
-4.5760751
0
LINE
8
layer1
10
-6.9996217
20
-4.5760751
11
-6.9211692
21
-4.4112015
0
LINE
8
layer1
10
-6.9211692
20
-4.4112015
11
-6.8419029
21
-4.2611373
0
LINE
8
layer1
10
-6.8419029
20
-4.2611373
11
-6.7625057
21
-4.1249385
0
LINE
8
layer1
10
-6.7625057
20
-4.1249385
11
-6.6848796
21
-4.0036929
0
LINE
8
layer1
10
-6.6848796
20
-4.0036929
11
-6.6071644
21
-3.8928505
0
LINE
8
layer1
10
-6.6071644
20
-3.8928505
11
-6.5341229
21
-3.7974982
0
LINE
8
layer1
10
-6.5341229
20
-3.7974982
11
-6.4649062
21
-3.7145762
0
LINE
8
layer1
10
-6.4649062
20
-3.7145762
11
-6.4004549
21
-3.6435948
0
LINE
8
layer1
10
-6.4004549
20
-3.6435948
11
-6.3422735
21
-3.5846657
0
LINE
8
layer1
10
-6.3422735
20
-3.5846657
11
-6.2456479
21
-3.4979801
0
LINE
8
layer1
10
-6.2456479
20
-3.4979801
11
-6.1636221
21
-3.4375093
0
LINE
8
layer1
10
-6.1636221
20
-3.4375093
11
-6.112552
21
-3.4115094
0
LINE
8
layer1
10
-6.112552
20
-3.4115094
11
-6.0118501
21
-3.3539434
0
LINE
8
layer1
10
-6.0118501
20
-3.3539434
11
-5.9266101
21
-3.2944715
0
LINE
8
layer1
10
-5.9266101
20
-3.2944715
11
-5.8567957
21
-3.2342818
0
LINE
8
layer1
10
-5.8567957
20
-3.2342818
11
-5.8022853
21
-3.1745569
0
LINE
8
layer1
10
-5.8022853
20
-3.1745569
11
-5.7629035
21
-3.1164777
0
LINE
8
layer1
10
-5.7629035
20
-3.1164777
11
-5.7383886
21
-3.0611973
0
LINE
8
layer1
10
-5.7383886
20
-3.0611973
11
-5.7316172
21
-3.0349543
0
LINE
8
layer1
10
-5.7316172
20
-3.0349543
11
-5.7284282
21
-3.0098356
0
LINE
8
layer1
10
-5.7284282
20
-3.0098356
11
-5.7287789
21
-2.9859864
0
LINE
8
layer1
10
-5.7287789
20
-2.9859864
11
-5.7326072
21
-2.9635213
0
LINE
8
layer1
10
-5.7326072
20
-2.9635213
11
-5.7422131
21
-2.937619
0
LINE
8
layer1
10
-5.7422131
20
-2.937619
11
-5.8576856
21
-2.7000467
0
LINE
8
layer1
10
-5.8576856
20
-2.7000467
11
-5.8923682
21
-2.6234513
0
LINE
8
layer1
10
-5.8923682
20
-2.6234513
11
-5.9260824
21
-2.5464249
0
LINE
8
layer1
10
-5.9260824
20
-2.5464249
11
-6.0253669
21
-2.3016452
0
LINE
8
layer1
10
-6.0253669
20
-2.3016452
11
-6.0381885
21
-2.2771746
0
LINE
8
layer1
10
-6.0381885
20
-2.2771746
11
-6.0523216
21
-2.2592975
0
LINE
8
layer1
10
-6.0523216
20
-2.2592975
11
-6.0698104
21
-2.2430786
0
LINE
8
layer1
10
-6.0698104
20
-2.2430786
11
-6.0906111
21
-2.2286408
0
LINE
8
layer1
10
-6.0906111
20
-2.2286408
11
-6.1146444
21
-2.216113
0
LINE
8
layer1
10
-6.1146444
20
-2.216113
11
-6.1721294
21
-2.1973413
0
LINE
8
layer1
10
-6.1721294
20
-2.1973413
11
-6.2416422
21
-2.1877451
0
LINE
8
layer1
10
-6.2416422
20
-2.1877451
11
-6.322501
21
-2.1882905
0
LINE
8
layer1
10
-6.322501
20
-2.1882905
11
-6.4139457
21
-2.1998979
0
LINE
8
layer1
10
-6.4139457
20
-2.1998979
11
-6.5151785
21
-2.2234491
0
LINE
8
layer1
10
-6.5151785
20
-2.2234491
11
-6.6253412
21
-2.2597661
0
LINE
8
layer1
10
-6.6253412
20
-2.2597661
11
-6.6788355
21
-2.2803212
0
LINE
8
layer1
10
-6.6788355
20
-2.2803212
11
-6.77866
21
-2.3008154
0
LINE
8
layer1
10
-6.77866
20
-2.3008154
11
-6.907735
21
-2.3146182
0
LINE
8
layer1
10
-6.907735
20
-2.3146182
11
-6.9904589
21
-2.3184241
0
LINE
8
layer1
10
-6.9904589
20
-2.3184241
11
-7.0863347
21
-2.318825
0
LINE
8
layer1
10
-7.0863347
20
-2.318825
11
-7.1942728
21
-2.3147774
0
LINE
8
layer1
10
-7.1942728
20
-2.3147774
11
-7.3140076
21
-2.3052547
0
LINE
8
layer1
10
-7.3140076
20
-2.3052547
11
-7.4483812
21
-2.2888402
0
LINE
8
layer1
10
-7.4483812
20
-2.2888402
11
-7.5904263
21
-2.2653985
0
LINE
8
layer1
10
-7.5904263
20
-2.2653985
11
-7.7447688
21
-2.2332674
0
LINE
8
layer1
10
-7.7447688
20
-2.2332674
11
-7.9093277
21
-2.1917611
0
LINE
8
layer1
10
-7.9093277
20
-2.1917611
11
-8.0843476
21
-2.1397407
0
LINE
8
layer1
10
-8.0843476
20
-2.1397407
11
-8.2398477
21
-2.0867541
0
ARC
8
layer1
10
0.0000211
20
0.0000049
40
8.5
50
189.7885598
51
194.2114466
0
LINE
8
layer1
10
-8.3762348
20
-1.4451033
11
-8.25573
21
-1.33345
0
LINE
8
layer1
10
-8.25573
20
-1.33345
11
-8.117
21
-1.21474
0
LINE
8
layer1
10
-8.117
20
-1.21474
11
-7.98355
21
-1.10989
0
LINE
8
layer1
10
-7.98355
20
-1.10989
11
-7.85562
21
-1.01776
0
LINE
8
layer1
10
-7.85562
20
-1.01776
11
-7.73539
21
-0.93857
0
LINE
8
layer1
10
-7.73539
20
-0.93857
11
-7.61931
21
-0.86892
0
LINE
8
layer1
10
-7.61931
20
-0.86892
11
-7.5138
21
-0.81152
0
LINE
8
layer1
10
-7.5138
20
-0.81152
11
-7.41684
21
-0.76392
0
LINE
8
layer1
10
-7.41684
20
-0.76392
11
-7.32909
21
-0.72529
0
LINE
8
layer1
10
-7.32909
20
-0.72529
11
-7.25197
21
-0.69512
0
LINE
8
layer1
10
-7.25197
20
-0.69512
11
-7.12844
21
-0.65523
0
LINE
8
layer1
10
-7.12844
20
-0.65523
11
-7.02891
21
-0.63335
0
LINE
8
layer1
10
-7.02891
20
-0.63335
11
-6.97168
21
-0.63037
0
LINE
8
layer1
10
-6.97168
20
-0.63037
11
-6.85627
21
-0.61874
0
LINE
8
layer1
10
-6.85627
20
-0.61874
11
-6.75421
21
-0.59908
0
LINE
8
layer1
10
-6.75421
20
-0.59908
11
-6.66595
21
-0.57249
0
LINE
8
layer1
10
-6.66595
20
-0.57249
11
-6.59186
21
-0.5401
0
LINE
8
layer1
10
-6.59186
20
-0.5401
11
-6.53226
21
-0.50306
0
LINE
8
layer1
10
-6.53226
20
-0.50306
11
-6.48738
21
-0.46253
0
LINE
8
layer1
10
-6.48738
20
-0.46253
11
-6.47052
21
-0.44131
0
LINE
8
layer1
10
-6.47052
20
-0.44131
11
-6.45739
21
-0.41966
0
LINE
8
layer1
10
-6.45739
20
-0.41966
11
-6.44801
21
-0.39773
0
LINE
8
layer1
10
-6.44801
20
-0.39773
11
-6.44237
21
-0.37565
0
LINE
8
layer1
10
-6.44237
20
-0.37565
11
-6.44061
21
-0.34808
0
LINE
8
layer1
10
-6.44061
20
-0.34808
11
-6.44947
21
-0.08408
0
LINE
8
layer1
10
-6.44947
20
-0.08408
11
-6.45
21
0
0
LINE
8
layer1
10
-6.45
20
0
11
-6.44947
21
0.08408
0
LINE
8
layer1
10
-6.44947
20
0.08408
11
-6.44061
21
0.34808
0
LINE
8
layer1
10
-6.44061
20
0.34808
11
-6.44237
21
0.37565
0
LINE
8
layer1
10
-6.44237
20
0.37565
11
-6.44801
21
0.39773
0
LINE
8
layer1
10
-6.44801
20
0.39773
11
-6.45739
21
0.41966
0
LINE
8
layer1
10
-6.45739
20
0.41966
11
-6.47052
21
0.44131
0
LINE
8
layer1
10
-6.47052
20
0.44131
11
-6.48738
21
0.46253
0
LINE
8
layer1
10
-6.48738
20
0.46253
11
-6.53226
21
0.50306
0
LINE
8
layer1
10
-6.53226
20
0.50306
11
-6.59186
21
0.5401
0
LINE
8
layer1
10
-6.59186
20
0.5401
11
-6.66595
21
0.57249
0
LINE
8
layer1
10
-6.66595
20
0.57249
11
-6.75421
21
0.59908
0
LINE
8
layer1
10
-6.75421
20
0.59908
11
-6.85627
21
0.61874
0
LINE
8
layer1
10
-6.85627
20
0.61874
11
-6.97168
21
0.63037
0
LINE
8
layer1
10
-6.97168
20
0.63037
11
-7.02891
21
0.63335
0
LINE
8
layer1
10
-7.02891
20
0.63335
11
-7.12844
21
0.65523
0
LINE
8
layer1
10
-7.12844
20
0.65523
11
-7.25197
21
0.69512
0
LINE
8
layer1
10
-7.25197
20
0.69512
11
-7.32909
21
0.72529
0
LINE
8
layer1
10
-7.32909
20
0.72529
11
-7.41684
21
0.76392
0
LINE
8
layer1
10
-7.41684
20
0.76392
11
-7.5138
21
0.81152
0
LINE
8
layer1
10
-7.5138
20
0.81152
11
-7.61931
21
0.86892
0
LINE
8
layer1
10
-7.61931
20
0.86892
11
-7.73539
21
0.93857
0
LINE
8
layer1
10
-7.73539
20
0.93857
11
-7.85562
21
1.01776
0
LINE
8
layer1
10
-7.85562
20
1.01776
11
-7.98355
21
1.10989
0
LINE
8
layer1
10
-7.98355
20
1.10989
11
-8.117
21
1.21474
0
LINE
8
layer1
10
-8.117
20
1.21474
11
-8.25573
21
1.33345
0
LINE
8
layer1
10
-8.25573
20
1.33345
11
-8.3762348
21
1.4451033
0
ARC
8
layer1
10
0.0000211
20
-0.0000049
40
8.5
50
165.7885541
51
170.2114409
0
LINE
8
layer1
10
-8.2398477
20
2.0867541
11
-8.0843476
21
2.1397407
0
LINE
8
layer1
10
-8.0843476
20
2.1397407
11
-7.9093277
21
2.1917611
0
LINE
8
layer1
10
-7.9093277
20
2.1917611
11
-7.7447688
21
2.2332674
0
LINE
8
layer1
10
-7.7447688
20
2.2332674
11
-7.5904263
21
2.2653985
0
LINE
8
layer1
10
-7.5904263
20
2.2653985
11
-7.4483812
21
2.2888402
0
LINE
8
layer1
10
-7.4483812
20
2.2888402
11
-7.3140076
21
2.3052547
0
LINE
8
layer1
10
-7.3140076
20
2.3052547
11
-7.1942728
21
2.3147774
0
LINE
8
layer1
10
-7.1942728
20
2.3147774
11
-7.0863347
21
2.318825
0
LINE
8
layer1
10
-7.0863347
20
2.318825
11
-6.9904589
21
2.3184241
0
LINE
8
layer1
10
-6.9904589
20
2.3184241
11
-6.907735
21
2.3146182
0
LINE
8
layer1
10
-6.907735
20
2.3146182
11
-6.77866
21
2.3008154
0
LINE
8
layer1
10
-6.77866
20
2.3008154
11
-6.6788355
21
2.2803212
0
LINE
8
layer1
10
-6.6788355
20
2.2803212
11
-6.6253412
21
2.2597661
0
LINE
8
layer1
10
-6.6253412
20
2.2597661
11
-6.5151785
21
2.2234491
0
LINE
8
layer1
10
-6.5151785
20
2.2234491
11
-6.4139457
21
2.1998979
0
LINE
8
layer1
10
-6.4139457
20
2.1998979
11
-6.322501
21
2.1882905
0
LINE
8
layer1
10
-6.322501
20
2.1882905
11
-6.2416422
21
2.1877451
0
LINE
8
layer1
10
-6.2416422
20
2.1877451
11
-6.1721294
21
2.1973413
0
LINE
8
layer1
10
-6.1721294
20
2.1973413
11
-6.1146444
21
2.216113
0
LINE
8
layer1
10
-6.1146444
20
2.216113
11
-6.0906111
21
2.2286408
0
LINE
8
layer1
10
-6.0906111
20
2.2286408
11
-6.0698104
21
2.2430786
0
LINE
8
layer1
10
-6.0698104
20
2.2430786
11
-6.0523216
21
2.2592975
0
LINE
8
layer1
10
-6.0523216
20
2.2592975
11
-6.0381885
21
2.2771746
0
LINE
8
layer1
10
-6.0381885
20
2.2771746
11
-6.0253669
21
2.3016452
0
LINE
8
layer1
10
-6.0253669
20
2.3016452
11
-5.9260824
21
2.5464249
0
LINE
8
layer1
10
-5.9260824
20
2.5464249
11
-5.8923682
21
2.6234513
0
LINE
8
layer1
10
-5.8923682
20
2.6234513
11
-5.8576856
21
2.7000467
0
LINE
8
layer1
10
-5.8576856
20
2.7000467
11
-5.7422131
21
2.937619
0
LINE
8
layer1
10
-5.7422131
20
2.937619
11
-5.7326072
21
2.9635213
0
LINE
8
layer1
10
-5.7326072
20
2.9635213
11
-5.7287789
21
2.9859864
0
LINE
8
layer1
10
-5.7287789
20
2.9859864
11
-5.7284282
21
3.0098356
0
LINE
8
layer1
10
-5.7284282
20
3.0098356
11
-5.7316172
21
3.0349543
0
LINE
8
layer1
10
-5.7316172
20
3.0349543
11
-5.7383886
21
3.0611973
0
LINE
8
layer1
10
-5.7383886
20
3.0611973
11
-5.7629035
21
3.1164777
0
LINE
8
layer1
10
-5.7629035
20
3.1164777
11
-5.8022853
21
3.1745569
0
LINE
8
layer1
10
-5.8022853
20
3.1745569
11
-5.8567957
21
3.2342818
0
LINE
8
layer1
10
-5.8567957
20
3.2342818
11
-5.9266101
21
3.2944715
0
LINE
8
layer1
10
-5.9266101
20
3.2944715
11
-6.0118501
21
3.3539434
0
LINE
8
layer1
10
-6.0118501
20
3.3539434
11
-6.112552
21
3.4115094
0
LINE
8
layer1
10
-6.112552
20
3.4115094
11
-6.1636221
21
3.4375093
0
LINE
8
layer1
10
-6.1636221
20
3.4375093
11
-6.2456479
21
3.4979801
0
LINE
8
layer1
10
-6.2456479
20
3.4979801
11
-6.3422735
21
3.5846657
0
LINE
8
layer1
10
-6.3422735
20
3.5846657
11
-6.4004549
21
3.6435948
0
LINE
8
layer1
10
-6.4004549
20
3.6435948
11
-6.4649062
21
3.7145762
0
LINE
8
layer1
10
-6.4649062
20
3.7145762
11
-6.5341229
21
3.7974982
0
LINE
8
layer1
10
-6.5341229
20
3.7974982
11
-6.6071644
21
3.8928505
0
LINE
8
layer1
10
-6.6071644
20
3.8928505
11
-6.6848796
21
4.0036929
0
LINE
8
layer1
10
-6.6848796
20
4.0036929
11
-6.7625057
21
4.1249385
0
LINE
8
layer1
10
-6.7625057
20
4.1249385
11
-6.8419029
21
4.2611373
0
LINE
8
layer1
10
-6.8419029
20
4.2611373
11
-6.9211692
21
4.4112015
0
LINE
8
layer1
10
-6.9211692
20
4.4112015
11
-6.9996217
21
4.5760751
0
LINE
8
layer1
10
-6.9996217
20
4.5760751
11
-7.0642948
21
4.7270892
0
ARC
8
layer1
10
0.0000172
20
-0.000013
40
8.5
50
141.7885536
51
146.2114408
0
LINE
8
layer1
10
-6.6787161
20
5.2577927
11
-6.5151081
21
5.2429508
0
LINE
8
layer1
10
-6.5151081
20
5.2429508
11
-6.3340609
21
5.2192868
0
LINE
8
layer1
10
-6.3340609
20
5.2192868
11
-6.1668467
21
5.1902725
0
LINE
8
layer1
10
-6.1668467
20
5.1902725
11
-6.0127789
21
5.156849
0
LINE
8
layer1
10
-6.0127789
20
5.156849
11
-5.8734796
21
5.1204891
0
LINE
8
layer1
10
-5.8734796
20
5.1204891
11
-5.7440469
21
5.0808298
0
LINE
8
layer1
10
-5.7440469
20
5.0808298
11
-5.6307904
21
5.0408287
0
LINE
8
layer1
10
-5.6307904
20
5.0408287
11
-5.5305378
21
5.000624
0
LINE
8
layer1
10
-5.5305378
20
5.000624
11
-5.4431139
21
4.9612616
0
LINE
8
layer1
10
-5.4431139
20
4.9612616
11
-5.3690899
21
4.9241379
0
LINE
8
layer1
10
-5.3690899
20
4.9241379
11
-5.2567882
21
4.8590289
0
LINE
8
layer1
10
-5.2567882
20
4.8590289
11
-5.1739296
21
4.7997042
0
LINE
8
layer1
10
-5.1739296
20
4.7997042
11
-5.1334207
21
4.7591681
0
LINE
8
layer1
10
-5.1334207
20
4.7591681
11
-5.0475535
21
4.6811837
0
LINE
8
layer1
10
-5.0475535
20
4.6811837
11
-4.9646518
21
4.6184934
0
LINE
8
layer1
10
-4.9646518
20
4.6184934
11
-4.8858341
21
4.5706957
0
LINE
8
layer1
10
-4.8858341
20
4.5706957
11
-4.8121878
21
4.5373092
0
LINE
8
layer1
10
-4.8121878
20
4.5373092
11
-4.7447815
21
4.5178024
0
LINE
8
layer1
10
-4.7447815
20
4.5178024
11
-4.6846313
21
4.5115699
0
LINE
8
layer1
10
-4.6846313
20
4.5115699
11
-4.6575802
21
4.5132394
0
LINE
8
layer1
10
-4.6575802
20
4.5132394
11
-4.6327054
21
4.5179686
0
LINE
8
layer1
10
-4.6327054
20
4.5179686
11
-4.6101318
21
4.525672
0
LINE
8
layer1
10
-4.6101318
20
4.525672
11
-4.5899493
21
4.536255
0
LINE
8
layer1
10
-4.5899493
20
4.536255
11
-4.5682831
21
4.553395
0
LINE
8
layer1
10
-4.5682831
20
4.553395
11
-4.3780214
21
4.7366298
0
LINE
8
layer1
10
-4.3780214
20
4.7366298
11
-4.3158924
21
4.7932841
0
LINE
8
layer1
10
-4.3158924
20
4.7932841
11
-4.2530542
21
4.8491508
0
LINE
8
layer1
10
-4.2530542
20
4.8491508
11
-4.0509354
21
5.019217
0
LINE
8
layer1
10
-4.0509354
20
5.019217
11
-4.0316246
21
5.0389728
0
LINE
8
layer1
10
-4.0316246
20
5.0389728
11
-4.0189898
21
5.0579386
0
LINE
8
layer1
10
-4.0189898
20
5.0579386
11
-4.0089691
21
5.0795833
0
LINE
8
layer1
10
-4.0089691
20
5.0795833
11
-4.0016657
21
5.1038275
0
LINE
8
layer1
10
-4.0016657
20
5.1038275
11
-3.9971777
21
5.1305559
0
LINE
8
layer1
10
-3.9971777
20
5.1305559
11
-3.9970887
21
5.1910281
0
LINE
8
layer1
10
-3.9970887
20
5.1910281
11
-4.0094428
21
5.2601041
0
LINE
8
layer1
10
-4.0094428
20
5.2601041
11
-4.0349482
21
5.3368368
0
LINE
8
layer1
10
-4.0349482
20
5.3368368
11
-4.0742454
21
5.420219
0
LINE
8
layer1
10
-4.0742454
20
5.420219
11
-4.1279267
21
5.5092194
0
LINE
8
layer1
10
-4.1279267
20
5.5092194
11
-4.1965083
21
5.6027678
0
LINE
8
layer1
10
-4.1965083
20
5.6027678
11
-4.232588
21
5.647292
0
LINE
8
layer1
10
-4.232588
20
5.647292
11
-4.2829266
21
5.7358977
0
LINE
8
layer1
10
-4.2829266
20
5.7358977
11
-4.3359403
21
5.85439
0
LINE
8
layer1
10
-4.3359403
20
5.85439
11
-4.3651229
21
5.931889
0
LINE
8
layer1
10
-4.3651229
20
5.931889
11
-4.3951315
21
6.0229485
0
LINE
8
layer1
10
-4.3951315
20
6.0229485
11
-4.4246367
21
6.1268545
0
LINE
8
layer1
10
-4.4246367
20
6.1268545
11
-4.4525801
21
6.2436718
0
LINE
8
layer1
10
-4.4525801
20
6.2436718
11
-4.4784928
21
6.376541
0
LINE
8
layer1
10
-4.4784928
20
6.376541
11
-4.5000927
21
6.5188777
0
LINE
8
layer1
10
-4.5000927
20
6.5188777
11
-4.5172286
21
6.6755952
0
LINE
8
layer1
10
-4.5172286
20
6.6755952
11
-4.5286054
21
6.8449263
0
LINE
8
layer1
10
-4.5286054
20
6.8449263
11
-4.5332152
21
7.0274552
0
LINE
8
layer1
10
-4.5332152
20
7.0274552
11
-4.530874
21
7.1917184
0
ARC
8
layer1
10
0.0000108
20
-0.0000187
40
8.5
50
117.7885564
51
122.2114434
0
LINE
8
layer1
10
-3.9627738
20
7.5197112
11
-3.8193472
21
7.4396071
0
LINE
8
layer1
10
-3.8193472
20
7.4396071
11
-3.6635773
21
7.3443504
0
LINE
8
layer1
10
-3.6635773
20
7.3443504
11
-3.5226207
21
7.2498324
0
LINE
8
layer1
10
-3.5226207
20
7.2498324
11
-3.3954674
21
7.1566335
0
LINE
8
layer1
10
-3.3954674
20
7.1566335
11
-3.2830001
21
7.066759
0
LINE
8
layer1
10
-3.2830001
20
7.066759
11
-3.1808883
21
6.9778834
0
LINE
8
layer1
10
-3.1808883
20
6.9778834
11
-3.0936933
21
6.895275
0
LINE
8
layer1
10
-3.0936933
20
6.895275
11
-3.0184607
21
6.8177697
0
LINE
8
layer1
10
-3.0184607
20
6.8177697
11
-2.9546051
21
6.7462519
0
LINE
8
layer1
10
-2.9546051
20
6.7462519
11
-2.9020804
21
6.6822294
0
LINE
8
layer1
10
-2.9020804
20
6.6822294
11
-2.8259699
21
6.5770721
0
LINE
8
layer1
10
-2.8259699
20
6.5770721
11
-2.7744043
21
6.4891747
0
LINE
8
layer1
10
-2.7744043
20
6.4891747
11
-2.7538851
21
6.4356667
0
LINE
8
layer1
10
-2.7538851
20
6.4356667
11
-2.7071607
21
6.3294991
0
LINE
8
layer1
10
-2.7071607
20
6.3294991
11
-2.6569246
21
6.2385095
0
LINE
8
layer1
10
-2.6569246
20
6.2385095
11
-2.6043622
21
6.162786
0
LINE
8
layer1
10
-2.6043622
20
6.162786
11
-2.5506624
21
6.1023313
0
LINE
8
layer1
10
-2.5506624
20
6.1023313
11
-2.4970178
21
6.0570943
0
LINE
8
layer1
10
-2.4970178
20
6.0570943
11
-2.4446028
21
6.0269354
0
LINE
8
layer1
10
-2.4446028
20
6.0269354
11
-2.4192114
21
6.0174579
0
LINE
8
layer1
10
-2.4192114
20
6.0174579
11
-2.3945636
21
6.0116608
0
LINE
8
layer1
10
-2.3945636
20
6.0116608
11
-2.3708084
21
6.0095166
0
LINE
8
layer1
10
-2.3708084
20
6.0095166
11
-2.3480662
21
6.0109757
0
LINE
8
layer1
10
-2.3480662
20
6.0109757
11
-2.3213017
21
6.0178215
0
LINE
8
layer1
10
-2.3213017
20
6.0178215
11
-2.0729607
21
6.1078283
0
LINE
8
layer1
10
-2.0729607
20
6.1078283
11
-1.9931596
21
6.1343145
0
LINE
8
layer1
10
-1.9931596
20
6.1343145
11
-1.913031
21
6.1597926
0
LINE
8
layer1
10
-1.913031
20
6.1597926
11
-1.6592142
21
6.2329467
0
LINE
8
layer1
10
-1.6592142
20
6.2329467
11
-1.6335374
21
6.2431402
0
LINE
8
layer1
10
-1.6335374
20
6.2431402
11
-1.614281
21
6.2553273
0
LINE
8
layer1
10
-1.614281
20
6.2553273
11
-1.5963229
21
6.2710249
0
LINE
8
layer1
10
-1.5963229
20
6.2710249
11
-1.5797899
21
6.2902025
0
LINE
8
layer1
10
-1.5797899
20
6.2902025
11
-1.5648185
21
6.3127947
0
LINE
8
layer1
10
-1.5648185
20
6.3127947
11
-1.5401409
21
6.3680025
0
LINE
8
layer1
10
-1.5401409
20
6.3680025
11
-1.5233311
21
6.4361315
0
LINE
8
layer1
10
-1.5233311
20
6.4361315
11
-1.5154215
21
6.5166043
0
LINE
8
layer1
10
-1.5154215
20
6.5166043
11
-1.5174067
21
6.6087613
0
LINE
8
layer1
10
-1.5174067
20
6.6087613
11
-1.5302472
21
6.7119014
0
LINE
8
layer1
10
-1.5302472
20
6.7119014
11
-1.5548501
21
6.8252567
0
LINE
8
layer1
10
-1.5548501
20
6.8252567
11
-1.569701
21
6.8806066
0
LINE
8
layer1
10
-1.569701
20
6.8806066
11
-1.5796483
21
6.9820265
0
LINE
8
layer1
10
-1.5796483
20
6.9820265
11
-1.5798836
21
7.1118372
0
LINE
8
layer1
10
-1.5798836
20
7.1118372
11
-1.5750216
21
7.1945057
0
LINE
8
layer1
10
-1.5750216
20
7.1945057
11
-1.5653985
21
7.2898983
0
LINE
8
layer1
10
-1.5653985
20
7.2898983
11
-1.5500905
21
7.3968219
0
LINE
8
layer1
10
-1.5500905
20
7.3968219
11
-1.5281042
21
7.5149055
0
LINE
8
layer1
10
-1.5281042
20
7.5149055
11
-1.4977339
21
7.6468271
0
LINE
8
layer1
10
-1.4977339
20
7.6468271
11
-1.4595728
21
7.7856437
0
LINE
8
layer1
10
-1.4595728
20
7.7856437
11
-1.4114845
21
7.9357821
0
LINE
8
layer1
10
-1.4114845
20
7.9357821
11
-1.3530046
21
8.095101
0
LINE
8
layer1
10
-1.3530046
20
8.095101
11
-1.2829746
21
8.2637245
0
LINE
8
layer1
10
-1.2829746
20
8.2637245
11
-1.214024
21
8.4128342
0
ARC
8
layer1
10
0.0000027
20
-0.0000214
40
8.5
50
93.7885599
51
98.2114467
0
LINE
8
layer1
10
-0.5616319
20
8.4814034
11
-0.4631865
21
8.3498877
0
LINE
8
layer1
10
-0.4631865
20
8.3498877
11
-0.359628
21
8.1995091
0
LINE
8
layer1
10
-0.359628
20
8.1995091
11
-0.2693017
21
8.0558304
0
LINE
8
layer1
10
-0.2693017
20
8.0558304
11
-0.1910487
21
7.918971
0
LINE
8
layer1
10
-0.1910487
20
7.918971
11
-0.12486
21
7.791122
0
LINE
8
layer1
10
-0.12486
20
7.791122
11
-0.0677252
21
7.6683975
0
LINE
8
layer1
10
-0.0677252
20
7.6683975
11
-0.0216684
21
7.5574656
0
LINE
8
layer1
10
-0.0216684
20
7.5574656
11
0.0155357
21
7.4560612
0
LINE
8
layer1
10
0.0155357
20
7.4560612
11
0.0447817
21
7.3647539
0
LINE
8
layer1
10
0.0447817
20
7.3647539
11
0.0667252
21
7.2849028
0
LINE
8
layer1
10
0.0667252
20
7.2849028
11
0.0934843
21
7.1578798
0
LINE
8
layer1
10
0.0934843
20
7.1578798
11
0.1048407
21
7.056608
0
LINE
8
layer1
10
0.1048407
20
7.056608
11
0.1018222
21
6.99938
0
LINE
8
layer1
10
0.1018222
20
6.99938
11
0.1013249
21
6.8833866
0
LINE
8
layer1
10
0.1013249
20
6.8833866
11
0.110209
21
6.7798306
0
LINE
8
layer1
10
0.110209
20
6.7798306
11
0.1274277
21
6.6892747
0
LINE
8
layer1
10
0.1274277
20
6.6892747
11
0.1518957
21
6.6122049
0
LINE
8
layer1
10
0.1518957
20
6.6122049
11
0.1825029
21
6.5490597
0
LINE
8
layer1
10
0.1825029
20
6.5490597
11
0.2181196
21
6.500189
0
LINE
8
layer1
10
0.2181196
20
6.500189
11
0.2374611
21
6.4812033
0
LINE
8
layer1
10
0.2374611
20
6.4812033
11
0.25762
21
6.4658822
0
LINE
8
layer1
10
0.25762
20
6.4658822
11
0.2784494
21
6.4542612
0
LINE
8
layer1
10
0.2784494
20
6.4542612
11
0.2998189
21
6.4463441
0
LINE
8
layer1
10
0.2998189
20
6.4463441
11
0.3270539
21
6.4417119
0
LINE
8
layer1
10
0.3270539
20
6.4417119
11
0.5905338
21
6.4229279
0
LINE
8
layer1
10
0.5905338
20
6.4229279
11
0.6742086
21
6.4146662
0
LINE
8
layer1
10
0.6742086
20
6.4146662
11
0.7577726
21
6.4053504
0
LINE
8
layer1
10
0.7577726
20
6.4053504
11
1.0194002
21
6.3689434
0
LINE
8
layer1
10
1.0194002
20
6.3689434
11
1.0470032
21
6.3678119
0
LINE
8
layer1
10
1.0470032
20
6.3678119
11
1.0695518
21
6.371113
0
LINE
8
layer1
10
1.0695518
20
6.371113
11
1.0923421
21
6.3781493
0
LINE
8
layer1
10
1.0923421
20
6.3781493
11
1.115246
21
6.3889444
0
LINE
8
layer1
10
1.115246
20
6.3889444
11
1.1381121
21
6.4034939
0
LINE
8
layer1
10
1.1381121
20
6.4034939
11
1.1831113
21
6.4438915
0
LINE
8
layer1
10
1.1831113
20
6.4438915
11
1.2261783
21
6.4992933
0
LINE
8
layer1
10
1.2261783
20
6.4992933
11
1.2661353
21
6.5695917
0
LINE
8
layer1
10
1.2661353
20
6.5695917
11
1.3018054
21
6.6545888
0
LINE
8
layer1
10
1.3018054
20
6.6545888
11
1.3320258
21
6.7540347
0
LINE
8
layer1
10
1.3320258
20
6.7540347
11
1.3556558
21
6.8675968
0
LINE
8
layer1
10
1.3556558
20
6.8675968
11
1.3646016
21
6.9242018
0
LINE
8
layer1
10
1.3646016
20
6.9242018
11
1.3967655
21
7.0208995
0
LINE
8
layer1
10
1.3967655
20
7.0208995
11
1.4493493
21
7.1395831
0
LINE
8
layer1
10
1.4493493
20
7.1395831
11
1.4874153
21
7.213127
0
LINE
8
layer1
10
1.4874153
20
7.213127
11
1.5350061
21
7.2963584
0
LINE
8
layer1
10
1.5350061
20
7.2963584
11
1.5924804
21
7.3878117
0
LINE
8
layer1
10
1.5924804
20
7.3878117
11
1.6605947
21
7.4867438
0
LINE
8
layer1
10
1.6605947
20
7.4867438
11
1.7419968
21
7.5949074
0
LINE
8
layer1
10
1.7419968
20
7.5949074
11
1.8333205
21
7.7062012
0
LINE
8
layer1
10
1.8333205
20
7.7062012
11
1.9383181
21
7.8238002
0
LINE
8
layer1
10
1.9383181
20
7.8238002
11
2.0565431
21
7.9455593
0
LINE
8
layer1
10
2.0565431
20
7.9455593
11
2.189104
21
8.0711208
0
LINE
8
layer1
10
2.189104
20
8.0711208
11
2.3127418
21
8.1792945
0
ARC
8
layer1
10
-0.0000067
20
-0.0000205
40
8.5
50
69.7885564
51
74.2114436
0
LINE
8
layer1
10
2.9366212
20
7.9765838
11
2.9730634
21
7.8163969
0
LINE
8
layer1
10
2.9730634
20
7.8163969
11
3.0065043
21
7.6368982
0
LINE
8
layer1
10
3.0065043
20
7.6368982
11
3.0305821
21
7.4689021
0
LINE
8
layer1
10
3.0305821
20
7.4689021
11
3.046404
21
7.3120465
0
LINE
8
layer1
10
3.046404
20
7.3120465
11
3.0548695
21
7.1683292
0
LINE
8
layer1
10
3.0548695
20
7.1683292
11
3.0571482
21
7.032976
0
LINE
8
layer1
10
3.0571482
20
7.032976
11
3.0541031
21
6.9129017
0
LINE
8
layer1
10
3.0541031
20
6.9129017
11
3.0468459
21
6.8051319
0
LINE
8
layer1
10
3.0468459
20
6.8051319
11
3.0364254
21
6.7098231
0
LINE
8
layer1
10
3.0364254
20
6.7098231
11
3.0239934
21
6.6279502
0
LINE
8
layer1
10
3.0239934
20
6.6279502
11
2.9967742
21
6.5010251
0
LINE
8
layer1
10
2.9967742
20
6.5010251
11
2.9659578
21
6.4038896
0
LINE
8
layer1
10
2.9659578
20
6.4038896
11
2.9399236
21
6.352837
0
LINE
8
layer1
10
2.9399236
20
6.352837
11
2.8922904
21
6.247074
0
LINE
8
layer1
10
2.8922904
20
6.247074
11
2.8582865
21
6.1488574
0
LINE
8
layer1
10
2.8582865
20
6.1488574
11
2.8371841
21
6.059127
0
LINE
8
layer1
10
2.8371841
20
6.059127
11
2.8281897
21
5.9787682
0
LINE
8
layer1
10
2.8281897
20
5.9787682
11
2.8304673
21
5.9086331
0
LINE
8
layer1
10
2.8304673
20
5.9086331
11
2.8431273
21
5.8495009
0
LINE
8
layer1
10
2.8431273
20
5.8495009
11
2.8530743
21
5.8242897
0
LINE
8
layer1
10
2.8530743
20
5.8242897
11
2.8652588
21
5.8020938
0
LINE
8
layer1
10
2.8652588
20
5.8020938
11
2.8795607
21
5.7830055
0
LINE
8
layer1
10
2.8795607
20
5.7830055
11
2.8958626
21
5.7670811
0
LINE
8
layer1
10
2.8958626
20
5.7670811
11
2.9188589
21
5.7517719
0
LINE
8
layer1
10
2.9188589
20
5.7517719
11
3.1519196
21
5.6274449
0
LINE
8
layer1
10
3.1519196
20
5.6274449
11
3.225
21
5.5858639
0
LINE
8
layer1
10
3.225
20
5.5858639
11
3.2975504
21
5.5433649
0
LINE
8
layer1
10
3.2975504
20
5.5433649
11
3.5217511
21
5.4036919
0
LINE
8
layer1
10
3.5217511
20
5.4036919
11
3.5465074
21
5.3914311
0
LINE
8
layer1
10
3.5465074
20
5.3914311
11
3.5684493
21
5.3852755
0
LINE
8
layer1
10
3.5684493
20
5.3852755
11
3.5921312
21
5.3824338
0
LINE
8
layer1
10
3.5921312
20
5.3824338
11
3.6174457
21
5.3829797
0
LINE
8
layer1
10
3.6174457
20
5.3829797
11
3.6442527
21
5.3869709
0
LINE
8
layer1
10
3.6442527
20
5.3869709
11
3.7017927
21
5.4055731
0
LINE
8
layer1
10
3.7017927
20
5.4055731
11
3.7636703
21
5.4386682
0
LINE
8
layer1
10
3.7636703
20
5.4386682
11
3.8287659
21
5.486637
0
LINE
8
layer1
10
3.8287659
20
5.486637
11
3.8959235
21
5.5497774
0
LINE
8
layer1
10
3.8959235
20
5.5497774
11
3.9639796
21
5.628334
0
LINE
8
layer1
10
3.9639796
20
5.628334
11
4.0317564
21
5.722467
0
LINE
8
layer1
10
4.0317564
20
5.722467
11
4.0629522
21
5.7705396
0
LINE
8
layer1
10
4.0629522
20
5.7705396
11
4.1316658
21
5.8457951
0
LINE
8
layer1
10
4.1316658
20
5.8457951
11
4.2279766
21
5.9328302
0
LINE
8
layer1
10
4.2279766
20
5.9328302
11
4.2926646
21
5.9845331
0
LINE
8
layer1
10
4.2926646
20
5.9845331
11
4.3699941
21
6.0412119
0
LINE
8
layer1
10
4.3699941
20
6.0412119
11
4.4596969
21
6.1013817
0
LINE
8
layer1
10
4.4596969
20
6.1013817
11
4.5621618
21
6.164056
0
LINE
8
layer1
10
4.5621618
20
6.164056
11
4.6805205
21
6.2297592
0
LINE
8
layer1
10
4.6805205
20
6.2297592
11
4.809216
21
6.2942865
0
LINE
8
layer1
10
4.809216
20
6.2942865
11
4.9529679
21
6.3590121
0
LINE
8
layer1
10
4.9529679
20
6.3590121
11
5.1104957
21
6.4221582
0
LINE
8
layer1
10
5.1104957
20
6.4221582
11
5.2826666
21
6.4829469
0
LINE
8
layer1
10
5.2826666
20
6.4829469
11
5.4396136
21
6.5314805
0
ARC
8
layer1
10
-0.0000142
20
-0.0000163
40
8.5
50
45.7885591
51
50.2114459
0
LINE
8
layer1
10
5.9271059
20
6.0925404
11
5.8952436
21
5.9313801
0
LINE
8
layer1
10
5.8952436
20
5.9313801
11
5.8527847
21
5.7537982
0
LINE
8
layer1
10
5.8527847
20
5.7537982
11
5.8064507
21
5.5905328
0
LINE
8
layer1
10
5.8064507
20
5.5905328
11
5.7571058
21
5.4408027
0
LINE
8
layer1
10
5.7571058
20
5.4408027
11
5.7063844
21
5.3060672
0
LINE
8
layer1
10
5.7063844
20
5.3060672
11
5.6534129
21
5.1814891
0
LINE
8
layer1
10
5.6534129
20
5.1814891
11
5.6017924
21
5.0730343
0
LINE
8
layer1
10
5.6017924
20
5.0730343
11
5.5513287
21
4.9775334
0
LINE
8
layer1
10
5.5513287
20
4.9775334
11
5.5030436
21
4.894703
0
LINE
8
layer1
10
5.5030436
20
4.894703
11
5.4583857
21
4.8249649
0
LINE
8
layer1
10
5.4583857
20
4.8249649
11
5.3818946
21
4.7200841
0
LINE
8
layer1
10
5.3818946
20
4.7200841
11
5.3142339
21
4.6438806
0
LINE
8
layer1
10
5.3142339
20
4.6438806
11
5.2696854
21
4.6078307
0
LINE
8
layer1
10
5.2696854
20
4.6078307
11
5.1831527
21
4.5305856
0
LINE
8
layer1
10
5.1831527
20
4.5305856
11
5.1121403
21
4.4546909
0
LINE
8
layer1
10
5.1121403
20
4.4546909
11
5.0563657
21
4.3813012
0
LINE
8
layer1
10
5.0563657
20
4.3813012
11
5.0154639
21
4.3115482
0
LINE
8
layer1
10
5.0154639
20
4.3115482
11
4.9890181
21
4.2465502
0
LINE
8
layer1
10
4.9890181
20
4.2465502
11
4.9765324
21
4.1873809
0
LINE
8
layer1
10
4.9765324
20
4.1873809
11
4.9753651
21
4.1603035
0
LINE
8
layer1
10
4.9753651
20
4.1603035
11
4.9774683
21
4.1350707
0
LINE
8
layer1
10
4.9774683
20
4.1350707
11
4.9827698
21
4.1118155
0
LINE
8
layer1
10
4.9827698
20
4.1118155
11
4.9911853
21
4.0906373
0
LINE
8
layer1
10
4.9911853
20
4.0906373
11
5.0059667
21
4.0672982
0
LINE
8
layer1
10
5.0059667
20
4.0672982
11
5.1683099
21
3.8589255
0
LINE
8
layer1
10
5.1683099
20
3.8589255
11
5.2181596
21
3.7912149
0
LINE
8
layer1
10
5.2181596
20
3.7912149
11
5.2671518
21
3.7228812
0
LINE
8
layer1
10
5.2671518
20
3.7228812
11
5.4151592
21
3.5040929
0
LINE
8
layer1
10
5.4151592
20
3.5040929
11
5.4327883
21
3.4828228
0
LINE
8
layer1
10
5.4327883
20
3.4828228
11
5.4503295
21
3.4682749
0
LINE
8
layer1
10
5.4503295
20
3.4682749
11
5.4708082
21
3.4560465
0
LINE
8
layer1
10
5.4708082
20
3.4560465
11
5.4941562
21
3.4462489
0
LINE
8
layer1
10
5.4941562
20
3.4462489
11
5.520269
21
3.4389917
0
LINE
8
layer1
10
5.520269
20
3.4389917
11
5.5804006
21
3.432582
0
LINE
8
layer1
10
5.5804006
20
3.432582
11
5.6503896
21
3.437648
0
LINE
8
layer1
10
5.6503896
20
3.437648
11
5.729368
21
3.454993
0
LINE
8
layer1
10
5.729368
20
3.454993
11
5.8164011
21
3.4853591
0
LINE
8
layer1
10
5.8164011
20
3.4853591
11
5.9105252
21
3.5294432
0
LINE
8
layer1
10
5.9105252
20
3.5294432
11
6.0107298
21
3.5878706
0
LINE
8
layer1
10
6.0107298
20
3.5878706
11
6.0587814
21
3.6190987
0
LINE
8
layer1
10
6.0587814
20
3.6190987
11
6.1521636
21
3.6598997
0
LINE
8
layer1
10
6.1521636
20
3.6598997
11
6.2755483
21
3.7002371
0
LINE
8
layer1
10
6.2755483
20
3.7002371
11
6.3556731
21
3.7211591
0
LINE
8
layer1
10
6.3556731
20
3.7211591
11
6.4493705
21
3.7414849
0
LINE
8
layer1
10
6.4493705
20
3.7414849
11
6.5557914
21
3.7599674
0
LINE
8
layer1
10
6.5557914
20
3.7599674
11
6.6748896
21
3.775547
0
LINE
8
layer1
10
6.6748896
20
3.775547
11
6.8097396
21
3.7874291
0
LINE
8
layer1
10
6.8097396
20
3.7874291
11
6.9535544
21
3.7940324
0
LINE
8
layer1
10
6.9535544
20
3.7940324
11
7.1112046
21
3.7946931
0
LINE
8
layer1
10
7.1112046
20
3.7946931
11
7.2807972
21
3.7883076
0
LINE
8
layer1
10
7.2807972
20
3.7883076
11
7.4628081
21
3.7738126
0
LINE
8
layer1
10
7.4628081
20
3.7738126
11
7.6259267
21
3.7543142
0
ARC
8
layer1
10
-0.0000197
20
-0.0000088
40
8.5
50
21.7885568
51
26.2114441
0
LINE
8
layer1
10
7.8927401
20
3.1550415
11
7.7980826
21
3.0207737
0
ENDSEC
0
EOF